<svg xmlns="http://www.w3.org/2000/svg" viewBox="0 0 3000 3000"><defs><style>.a{fill:none;}.a,.d{stroke:#000;stroke-miterlimit:10;}.b{fill:#fca311;}.c{fill:#fff;}.d{fill:#e5e5e5;}.e{fill:#14213d;}</style></defs><title>AcrolLArtboard 1</title><path class="a" d="M2017.48,1979.91q-20.24-25.15-39.71-50.76Q1998.52,1953.79,2017.48,1979.91Z"/><path class="b" d="M1500,2990a1500.91,1500.91,0,0,1-296.69-29.54l-.29-.06-7.1-1.45-6-1.26-2.87-.61c-4.83-1-9.2-2-13.31-2.91l-5-1.12-1.07-.24-2.62-.61-6.07-1.41-7.34-1.73c-7.38-1.77-15.05-3.67-22.79-5.66-2-.5-4-1-5.95-1.53l-.57-.16c-2.22-.57-4.44-1.16-6.66-1.75-2-.53-3.94-1.05-5.86-1.57-2.66-.71-5.28-1.44-7.9-2.16q-5.54-1.53-11.05-3.1l-.35-.1-7.23-2.08c-2.21-.64-4.37-1.27-6.52-1.91l-4.85-1.45c-2.43-.72-4.8-1.44-7.18-2.17l-.43-.13c-2.46-.75-4.92-1.5-7.39-2.27l-8.11-2.55-1.57-.5c-2.57-.82-5.17-1.65-7.77-2.5l-8.17-2.68q-5.49-1.82-10.95-3.67l-1.42-.49-5.46-1.87q-5.09-1.76-10.12-3.54c-2.15-.76-4.3-1.52-6.45-2.3l-.13,0-.73-.26-.11,0c-2.63-.94-5.25-1.9-7.87-2.86l-1.16-.42c-5.81-2.14-11.12-4.12-16.18-6-3.18-1.21-6.38-2.44-9.57-3.68-5.38-2.09-10.69-4.18-15.79-6.23l-.42-.17-7.88-3.19-.29-.11-8.37-3.46c-2.52-1-5-2.09-7.49-3.14l-.31-.13c-5.59-2.35-11.48-4.88-18-7.75-8.58-3.76-16.42-7.29-24-10.77l-7.5-3.47-.73-.35c-2.73-1.27-5.44-2.54-8.16-3.83-2.5-1.18-5-2.36-7.41-3.55l-.14-.06-1-.5-.15-.07-5.64-2.73-2-1q-4-2-8.06-4-4.45-2.22-8.88-4.45l-7-3.58-.66-.34c-2.47-1.26-5-2.57-7.55-3.9-2.71-1.4-5.37-2.8-8-4.19l-.3-.16-.32-.17-.33-.17c-2.37-1.25-4.69-2.49-7-3.73-2.48-1.32-4.92-2.64-7.36-4l-1.44-.79c-2.39-1.3-4.72-2.57-7-3.86q-4.12-2.25-8.19-4.54c-2.45-1.37-4.86-2.72-7.25-4.09-8-4.5-15.91-9.1-23.62-13.67-2.6-1.53-5.16-3.05-7.72-4.6-2.37-1.41-4.7-2.81-7-4.24l-.34-.2-3.45-2.1c-4.23-2.58-8.57-5.26-12.92-8-2.16-1.34-4.27-2.67-6.37-4-6.1-3.85-11.71-7.45-17.17-11-1.91-1.24-3.77-2.46-5.63-3.69-2.68-1.75-5.31-3.49-7.92-5.25-1.65-1.09-3.22-2.14-4.79-3.21l-.13-.09c-1-.65-2-1.3-2.92-2-4.25-2.87-8.32-5.65-12.14-8.29l-1.53-1.06-3.61-2.51c-2.9-2-5.77-4-8.63-6.06-1.43-1-2.79-2-4.15-2.95-7.43-5.28-14.77-10.61-21.87-15.87-1.39-1-2.72-2-4.06-3-5.65-4.21-10.62-8-15.25-11.52-1.45-1.11-2.89-2.21-4.33-3.33L586,2676.8c-1.91-1.49-3.81-3-5.7-4.47l-.44-.33q-3-2.36-6-4.73c-6.55-5.19-13.14-10.52-19.61-15.85q-2.19-1.78-4.36-3.6c-7.72-6.39-15.45-12.93-23-19.44-1.29-1.1-2.54-2.19-3.79-3.28l-1.25-1.08-.21-.19c-1.83-1.58-3.65-3.18-5.47-4.78-3.89-3.42-7.45-6.59-10.9-9.69-1.81-1.63-3.62-3.25-5.41-4.88s-3.61-3.27-5.39-4.91l-4.37-4-.1-.09c-6.59-6.08-13.15-12.25-19.49-18.3-1.68-1.59-3.31-3.17-4.93-4.74s-3-2.85-4.41-4.27l-3.76-3.67c-5.17-5.07-10.4-10.26-15.55-15.46q-1.78-1.8-3.56-3.61c-1.84-1.86-3.63-3.69-5.41-5.51l-.07-.07q-2.61-2.67-5.2-5.37-3.08-3.18-6.1-6.35c-5.52-5.8-10.55-11.16-15.38-16.39-1.56-1.67-3.05-3.29-4.54-4.92l-2.32-2.54c0-1.32,0-2.64,0-4,0-1.53,0-3,.05-4.51v-.12q.06-4.68.18-9.34l0-1.82,0-1.31c0-.85.05-1.69.08-2.53l.1-3.09c0-.12,0-.25,0-.37,0-1.54.1-3.09.16-4.63.06-1.69.14-3.35.22-5,.41-9.3,1-18.5,1.64-27.42.06-.87.13-1.66.19-2.46.19-2.36.38-4.61.57-6.87a2.64,2.64,0,0,0,0-.28l.06-.75.17-1.91q.34-3.73.71-7.55s0-.28,0-.37c.25-2.52.51-5,.77-7.53.07-.66.13-1.23.2-1.79.17-1.59.34-3.12.51-4.66.16-1.38.32-2.73.49-4.1.13-1.2.27-2.31.41-3.43v-.12c.09-.77.19-1.53.29-2.3l.21-1.66c.14-1.17.29-2.35.45-3.52q.42-3.18.86-6.31c.21-1.57.43-3.08.65-4.59,0,0,0-.07,0-.11.14-1,.29-2,.45-3.07.68-4.66,1.4-9.26,2.15-13.77.22-1.41.44-2.76.67-4.1l.05-.24c.38-2.25.76-4.51,1.16-6.74.35-2,.7-4,1.07-5.92l0-.15c.27-1.46.54-2.92.82-4.37l.15-.8c.25-1.32.51-2.64.76-4,.22-1.13.44-2.23.66-3.32.25-1.29.49-2.46.73-3.64l0-.22c1.4-6.86,2.93-13.94,4.56-21l.67-2.9c.64-2.79,1.29-5.52,2-8.24l.61-2.49c1.59-6.5,3.3-13.15,5.09-19.74q1.31-4.82,2.66-9.62l.74-2.58c.62-2.18,1.23-4.29,1.85-6.38l0-.12c.11-.38.22-.76.34-1.13l0-.13c.63-2.13,1.26-4.26,1.91-6.37l.05-.16-.06.16.15-.46q1.1-3.6,2.22-7.19l.06-.16c.54-1.75,1.09-3.49,1.65-5.24.87-2.71,1.76-5.43,2.66-8.12l.46-1.4,1.16-3.42c.55-1.65,1.09-3.22,1.63-4.78.87-2.55,1.75-5.06,2.63-7.5,0-.05,0-.09,0-.13.5-1.44,1-2.86,1.53-4.28l.42-1.17c.32-.9.64-1.79,1-2.67.62-1.7,1.22-3.33,1.83-5l.13-.35c.61-1.64,1.22-3.28,1.85-4.91l0-.1c.34-.92.7-1.85,1.05-2.77l.51-1.34c1-2.47,1.93-5,2.93-7.46.87-2.19,1.72-4.32,2.59-6.45l.15-.37c.69-1.71,1.4-3.43,2.1-5.14,1.33-3.23,2.55-6.14,3.75-8.91.62-1.46,1.21-2.84,1.81-4.23q1.81-4.23,3.67-8.36l0-.1c.84-1.88,1.67-3.75,2.53-5.63.95-2.1,1.9-4.17,2.86-6.25l.15-.32q1.46-3.13,2.93-6.25c3.17-6.74,6.53-13.62,10-20.49.82-1.65,1.63-3.22,2.44-4.79.9-1.78,1.78-3.5,2.68-5.21l.46-.88,1.2-2.29c1.23-2.35,2.46-4.66,3.7-7s2.32-4.29,3.49-6.41c2.3-4.22,4.82-8.73,7.72-13.82q1.36-2.39,2.74-4.76c1.33-2.29,2.65-4.54,4-6.79.15-.24.27-.46.4-.67l.12-.2c1.39-2.35,2.8-4.69,4.21-7,.07-.1.13-.2.19-.3,1.38-2.3,2.78-4.58,4.18-6.85l.73-1.16c1.38-2.23,2.76-4.45,4.17-6.66,2.32-3.68,4.45-7,6.5-10.13,1-1.55,2-3.07,3-4.58.72-1.1,1.43-2.17,2.15-3.24,1-1.53,2-3,3-4.46,1.2-1.78,2.39-3.53,3.59-5.27s2.43-3.54,3.64-5.27,2.18-3.12,3.26-4.66l.63-.88.06-.09,3.44-4.82,2.42-3.36,1.76-2.41.76-1c7.47-10.22,15.26-20.39,23.14-30.23l.15-.18c1.23-1.53,2.45-3.06,3.69-4.58s2.22-2.74,3.33-4.09l3.7-4.47c1.34-1.62,2.68-3.21,4-4.79s2.64-3.12,4-4.67c1.77-2.06,3.57-4.15,5.37-6.21l3.29-3.75.16-.18,3.22-3.64.4-.44c2.64-3,5.46-6.07,8.37-9.24.6-.65,1.2-1.3,1.78-2,3.1-3.35,6.35-6.81,9.6-10.21,2.8-3,5.44-5.68,8.08-8.37q3.3-3.37,6.62-6.69c.77-.78,1.5-1.5,2.23-2.22l.09-.09c2.6-2.6,5.35-5.3,8.41-8.25.82-.8,1.6-1.55,2.39-2.3,11.62-11.17,23.58-22,35.57-32.37,1.44-1.25,2.82-2.44,4.21-3.62l3.77-3.19c9.54-8,19.28-15.89,29-23.37,1.83-1.42,3.64-2.8,5.45-4.17,1.3-1,2.59-2,3.89-3l.47-.35,3.47-2.6,1.64-1.21,2.51-1.86,4.22-3.08c5.3-3.85,10.68-7.67,16-11.35,1.84-1.28,3.69-2.56,5.56-3.82l3-2.05c1.53-1,3-2,4.46-3l3.1-2.06.13-.09c.46-.31.91-.61,1.37-.9l.13-.09c1.63-1.08,3.28-2.15,4.93-3.21l.15-.11c.93-.6,1.85-1.2,2.77-1.78,3.36-2.17,6.79-4.34,10.53-6.67l3.3-2c5.56-3.43,11.32-6.9,17.1-10.28,1.47-.87,2.92-1.71,4.39-2.56l5.09-2.92c1.18-.68,2.35-1.34,3.51-2,2.24-1.27,4.46-2.5,6.67-3.73q2.9-1.61,5.77-3.16l.12-.07,1.47-.79.22-.12c1.64-.89,3.29-1.78,4.93-2.64,2.56-1.38,5.07-2.7,7.59-4,2.91-1.5,5.83-3,8.78-4.49l.28-.15.48-.23c1.48-.75,3-1.5,4.44-2.23l.42-.21,3.19-1.57.11-.06,3.41-1.66,1.07-.53c1.61-.78,3.23-1.56,4.84-2.32l.47-.23,3.46-1.64q5-2.34,9.61-4.45c1.35-.63,2.63-1.21,3.91-1.78,4.49-2,9-4,14-6.16,1.66-.71,3.33-1.43,5-2.13,7.93-3.36,16-6.64,24-9.73l.66-.25,5.58-2.15c3.35-1.27,6.77-2.55,10.18-3.8,5.35-2,10.69-3.85,15.86-5.63l3.76-1.28.12,0c1.42-.5,2.84-1,4.28-1.45s3-1,4.49-1.48l.61-.21,4.41-1.43,4.56-1.44,4.57-1.43c5.07-1.57,9.77-3,14.4-4.32l2.68-.78,3.55-1c1.45-.42,2.87-.81,4.29-1.2l.1,0c1.73-.49,3.47-1,5.2-1.43l.11,0,3.93-1,.25-.07,3.31-.86c5.74-1.51,11.57-3,17.38-4.35,1.2-.29,2.37-.58,3.55-.85,1.45-.34,2.87-.68,4.3-1l.46-.11c1.65-.37,3.29-.75,4.94-1.11l.53-.12c1.36-.31,2.71-.61,4.07-.9l.51-.11c1-.21,2-.43,2.94-.63l.21,0c1-.22,1.93-.42,2.89-.62l.28-.06c2.94-.61,5.88-1.22,8.82-1.8l2.65-.52.39-.07c1-.21,2-.41,3-.6,1.88-.35,3.69-.7,5.52-1,4-.74,7.58-1.38,11.09-2,1.74-.3,3.48-.6,5.21-.88l.56-.1,1.49-.24,3.58-.58c1.88-.3,3.7-.59,5.53-.86l5.56-.84c3.16-.46,6.38-.91,9.61-1.35l1.31-.17,2.47-.33,4.59-.59,1.79-.22,3.54-.43c1.94-.24,3.81-.46,5.68-.66l4.16-.47.49,0c1.57-.17,3.15-.33,4.73-.48l.12,0,4.87-.48h.14c1.2-.13,2.41-.24,3.6-.35l4.53-.41.32,0,.31,0,3.33-.28.26,0c1.14-.1,2.21-.19,3.29-.26l.15,0,2.68-.21h.15l.74,0,.27,0c1.33-.11,2.65-.2,4-.29l5.71-.38.46,0,6.26-.38h-.11l1.47-.08,5-.26,4.57-.21h.2l4.83-.2.83,0,4.89-.17c2.38-.07,4.75-.14,7.11-.19l4.29-.09,4.51-.08,4.55,0c2.77,0,5.51,0,8.24,0l6.88,0,4.26,0,2.55,0h.14c1.15,0,2.31,0,3.46.06l3.37.07c5.56.12,11.32.31,17.59.57,1.86.07,3.68.16,5.49.25,3.35.16,6.81.35,10.61.58l3.78.23c1.43.09,2.83.18,4.25.29h.16c.56,0,1.13.07,1.69.12l.23,0c1.6.1,3.2.22,4.8.35,4.44.34,8.34.66,12,1l3.35.31,4.33.41,5,.52.91.1q3.09.31,6.2.68c1.72.18,3.39.38,5,.59,2.1.24,4.11.48,6.13.74l2.6.33,3.23.42.3,0,6.09.83c1.19.17,2.36.33,3.53.51l.28,0c.31,0,.62.08.92.13l.13,0,2.22.32.45.07c1,.14,2,.28,2.9.44l.17,0,3.54.54c2.08.32,4.11.64,6.14,1l3.76.62c1.76.3,3.45.58,5.14.88l3.78.67c5.26.93,10.8,2,16.45,3.1l2,.4.29.06c3.34.67,6.63,1.35,9.92,2.05l4.07.88c1.37.29,2.69.58,4,.88,3.89.86,7.33,1.65,10.57,2.42,1.61.37,3.15.74,4.69,1.12l.22,0,4.93,1.21,2.41.6.2,0,1.07.26.54.14,3.78,1c1.29.32,2.5.64,3.71,1l1.38.36c1.76.46,3.56,1,5.33,1.43s3.53,1,5.27,1.45l3.34.93c1.16.32,2.26.63,3.35,1s2.43.69,3.62,1l.11,0c2.2.62,4.37,1.27,6.54,1.92l3.36,1,.8.24,6.51,2c1.66.52,3.32,1,5,1.57,2.15.68,4.28,1.37,6.41,2.07.63.21,1.21.39,1.78.59,2.13.7,4.22,1.4,6.32,2.11,1.74.58,3.43,1.16,5.11,1.74l.59.21,4.61,1.61c2.1.73,4.16,1.47,6.22,2.22l.09,0,3.94,1.43c1.71.62,3.41,1.26,5.11,1.89,1.07.39,2,.76,3,1.13l.11,0,1.9.72c5,1.88,10,3.86,15.21,5.95,1.49.59,2.93,1.18,4.38,1.77l.24.1c1.81.73,3.61,1.46,5.39,2.22l5,2.11,3.55,1.52,1.24.53.62.26.2.09,4.33,1.88,4.62,2,.35.15c2.33,1,4.74,2.11,7.2,3.24l2.68,1.23c3.56,1.63,7.21,3.33,10.79,5,1.75.83,3.52,1.68,5.27,2.53,3.36,1.62,6.43,3.13,9.42,4.63l.26.14,3.36,1.68.15.08c.75.36,1.48.74,2.22,1.12l2.51,1.28c6.25,3.19,12.65,6.57,19,10,1.61.87,3.16,1.72,4.72,2.58s3.13,1.73,4.68,2.6l3.37,1.9c1.45.82,2.82,1.59,4.19,2.38,5.4,3.07,10.93,6.32,16.49,9.66,1.3.78,2.55,1.53,3.8,2.3,5.88,3.56,12,7.39,18.23,11.37,1.49,1,3,1.91,4.46,2.88l3.18,2.08q2.57,1.67,5.1,3.37c1.73,1.15,3.43,2.29,5.12,3.44,7.86,5.29,15.71,10.78,23.38,16.33l4.36,3.18c1.62,1.18,3.2,2.34,4.76,3.51,2.72,2,5.38,4,8,6,1.17.88,2.26,1.71,3.34,2.55l.1.08c.91.69,1.84,1.4,2.75,2.12,1.86,1.43,3.66,2.84,5.46,4.26l.13.1,4.73,3.74,1.38,1.11q2.22,1.77,4.42,3.57c2,1.64,4,3.24,5.93,4.85l1.51,1.25c2.3,1.9,4.64,3.86,7,5.84,1.19,1,2.33,2,3.45,3l.2.17.92.78,2.58,2.22.68.6c.71.6,1.41,1.21,2.12,1.83l.35.31,2.51,2.2c1,.88,2,1.72,2.9,2.56,1.35,1.2,2.64,2.34,3.92,3.5s2.64,2.38,3.92,3.55c.9.81,1.75,1.59,2.6,2.37l.92.85c.92.84,1.84,1.68,2.75,2.53,1.17,1.08,2.27,2.11,3.37,3.14s2.34,2.19,3.5,3.3l.12.11c1.06,1,2.13,2,3.19,3l1.34,1.29,2.81,2.71,2.71,2.63q1.9,1.86,3.79,3.74c1.3,1.27,2.56,2.52,3.81,3.77,5.08,5.08,10.09,10.22,14.91,15.27l2.77,2.93.09.1c.86.89,1.69,1.78,2.52,2.67l.08.09q1.89,2,3.73,4c1.82,2,3.59,3.9,5.36,5.85q1.8,2,3.57,3.94c3.21,3.58,6.13,6.88,8.92,10.1q2.52,2.89,5,5.77t4.75,5.59c12.9,17,26.29,34.08,39.81,50.88l.18.22,5.79,7.17,4.21,5.17c17.54,21.51,35.71,43,54,63.91,1.28,1.47,2.57,2.93,3.87,4.4l.61.69c10.38,11.79,21,23.57,31.44,35,1.77,1.94,3.54,3.88,5.34,5.81q4.59,5,9.28,10l5.66,6.05,4.94,5.25,1.57,1.65c3.4,3.59,6.79,7.16,10.22,10.73,4.49,4.69,8.19,8.52,11.64,12.06,1.81,1.88,3.66,3.77,5.52,5.66s3.66,3.75,5.53,5.64,3.68,3.74,5.55,5.62c12.71,12.83,26,26,39.62,39.08l4.79,4.59.8.77c14.26,13.65,28.84,27.28,43.34,40.5l2,1.84c1.38,1.25,2.76,2.51,4.14,3.75,2.19,2,4.42,4,6.65,6s4.42,4,6.66,6l6.7,6c8.85,7.83,18,15.84,27.27,23.78q3.25,2.79,6.49,5.54c6.64,5.69,13.64,11.6,20.79,17.55l2.54,2.11,4.4,3.66c4.42,3.66,9,7.42,13.95,11.46l6.1,5,.91.74,7.05,5.68q3.53,2.85,7.11,5.69c2.27,1.82,4.59,3.65,6.9,5.49l.17.13,7.12,5.62c2,1.55,4,3.1,5.94,4.64l8.14,6.33.25.19c58.13,44.95,118.75,87.61,180.37,126.92q-2.46,2.67-4.94,5.31l-.14.16c-2.13,2.28-4.25,4.55-6.39,6.81s-4.24,4.48-6.35,6.69l-.36.38c-.25.26-.49.52-.74.77l-.17.18c-1.77,1.85-3.55,3.7-5.33,5.53l-.81.84c-1.73,1.78-3.47,3.58-5.22,5.37l-1.14,1.16-1.56,1.58-.09.09c-1.44,1.48-2.9,3-4.36,4.41l-.21.21c-.23.25-.48.5-.73.74-.06,0-.1.1-.15.15q-2.43,2.46-4.88,4.89c-1.07,1.07-2.12,2.11-3.17,3.14l-.83.83-1.71,1.69c-1.31,1.3-2.56,2.53-3.82,3.75s-2.41,2.36-3.6,3.5l-.08.08q-2.36,2.31-4.72,4.57c-1.87,1.82-3.68,3.55-5.5,5.28q-4.32,4.13-8.65,8.18c-1.56,1.48-3.08,2.9-4.6,4.31-2.21,2.06-4.39,4.08-6.59,6.1-4.48,4.12-8.94,8.17-13.24,12q-3.36,3-6.76,6l-1.57,1.41-1.65,1.44-4.8,4.22c-3.12,2.72-6.23,5.42-9.36,8.12l-4.74,4.06-.8.67c-1.84,1.58-3.69,3.14-5.53,4.7l-.55.46c-2,1.72-4.08,3.42-6.13,5.13l-.87.73c-1.18,1-2.35,2-3.54,2.93-2.11,1.76-4.17,3.44-6.23,5.12-1.51,1.25-3,2.45-4.46,3.63-1,.81-1.88,1.54-2.79,2.26l-.11.09q-2.78,2.26-5.58,4.49l-.1.08-.76.61-.11.09c-2.07,1.65-4.11,3.28-6.15,4.88-10.21,8.06-20.82,16.22-31.58,24.26-2.56,1.92-5.12,3.81-7.7,5.71-3.46,2.57-6.93,5.1-10.3,7.53-1.53,1.11-3,2.2-4.53,3.27l-.37.27-2.11,1.5-.09.07c-1.44,1-2.9,2.08-4.36,3.11l-3.09,2.19-6,4.25-.55.37q-3.64,2.55-7.28,5.06l-.09.06c-.19.13-.32.23-.47.32l-.3.21q-3,2.1-6.09,4.17l-6.23,4.22-5.39,3.61c-4.58,3.07-9.3,6.18-14.07,9.27-1.87,1.23-3.7,2.41-5.54,3.59-9.56,6.17-19.11,12.18-28.41,17.87-2.15,1.33-4.27,2.62-6.38,3.9-2.3,1.4-4.62,2.8-6.94,4.19-1.93,1.15-3.84,2.3-5.76,3.42l-.1.06q-2.64,1.57-5.29,3.12c-2.27,1.35-4.51,2.65-6.74,3.95-2.61,1.51-5.22,3-7.82,4.5l-1.57.9-5.56,3.16-3.69,2.07-.84.47c-2.47,1.39-4.95,2.76-7.42,4.13-1.36.76-2.74,1.52-4.11,2.26l-.13.07c-1.24.7-2.48,1.37-3.72,2.05l-7,3.8-.25.13q-2.79,1.52-5.6,3l-.1.06c-1.4.76-2.8,1.49-4.21,2.23-18.91,10-38.34,19.72-57.77,28.92l-4,1.88-.09,0c-1.83.88-3.68,1.73-5.52,2.59l-.2.09q-3.51,1.65-7,3.22c-1.74.81-3.43,1.57-5.11,2.33-1.27.59-2.47,1.13-3.67,1.66l-.09,0c-1.59.73-3.17,1.44-4.77,2.14-3,1.36-6.05,2.7-9.09,4l-1.84.8-3.61,1.57-.62.27-.16.07-4.85,2.09c-5,2.13-10.19,4.33-15.55,6.55-1.91.81-3.79,1.59-5.67,2.35l-3.47,1.42-1.27.51-4.76,1.93-.24.1-5.33,2.12-.45.18-.31.12-5.64,2.23c-3.93,1.54-7.9,3.08-12.22,4.72l-.45.18-5.48,2.08c-6.49,2.45-13,4.83-19.22,7.09l-4.59,1.65-2.48.89-4.44,1.57-1.83.64-4.29,1.5-6.19,2.13q-6.16,2.12-12.36,4.17c-4.85,1.61-9.31,3.07-13.64,4.46q-5.38,1.72-10.78,3.42l-.67.2c-2,.63-4,1.26-6,1.87l-.27.08-3.56,1.09-2.51.77-6.22,1.87-4.14,1.22c-6.49,1.92-13.37,3.9-21.06,6.05l-5.51,1.52-5.6,1.53c-1.92.53-3.82,1-5.73,1.54l-2.19.58c-2.11.56-4.21,1.11-6.32,1.65l-5,1.31-4.93,1.26-.78.19c-3.89,1-7.86,2-11.83,2.93l-5.42,1.31-3.94.93q-3.23.78-6.46,1.51l-4.48,1c-7.17,1.63-14.4,3.23-21.52,4.74l-.82.17-5.49,1.16c-6.3,1.31-11.5,2.36-16.38,3.3-1.91.39-3.73.75-5.56,1.09l-2.1.41c-2.69.51-5.45,1-8.23,1.54-3.47.64-6.94,1.28-10.41,1.89-2.49.45-5,.88-7.43,1.3-4.78.82-9.75,1.66-15.25,2.55l-6.59,1.05q-6.13,1-12.29,1.88l-1.22.18-5.53.81-1.26.18-.2,0-6,.85A1507.39,1507.39,0,0,1,1500,2990Zm-211-471.86a588.67,588.67,0,0,1,180.24,28.09,10,10,0,0,0,12.94-8,197.26,197.26,0,0,0,0-60.2c-14.57-94.29-97.62-165.39-193.18-165.39-97.12,0-178.37,69.56-193.18,165.39a197.26,197.26,0,0,0,0,60.2,10,10,0,0,0,12.94,8A588.67,588.67,0,0,1,1289,2518.14Z"/><path d="M1289,1628.39l6.82,0,4.18,0h0l2.41,0h.28l3.3,0h.14l1.58,0,1.66,0c5.54.12,11.23.3,17.41.56h.08c1.78.06,3.57.15,5.37.24,3.3.15,6.71.34,10.45.57h.13l3.67.22,4.1.28.31,0,1.38.1.47,0c1.56.1,3.12.21,4.68.34h0c4.37.34,8.23.66,11.78,1h.07l3.22.31h.15l4.14.39,5.91.61c2,.21,4.07.44,6.11.67h.07c1.64.18,3.27.37,4.9.57l.13,0c2,.23,4,.47,6,.72l1.29.17,1.34.17c1,.12,2,.26,3,.39l.42.06q3,.39,6,.82l3.42.49.55.07.67.1.2,0,2.25.33.32,0h.1c.89.13,1.78.26,2.66.41l.35,0,3.46.53h.06c2,.31,4,.63,6,1l3.66.61.12,0c1.66.27,3.31.55,5,.85l.3,0,1.63.29,1.86.32c5.27.94,10.59,1.94,16.27,3.07l.16,0,1.77.35.4.08c3.14.63,6.43,1.31,9.76,2h.06l4,.86.11,0c1.27.27,2.55.55,3.82.84l.11,0c3.82.84,7.21,1.62,10.37,2.37l.13,0c1.58.36,3.15.75,4.73,1.13l.08,0c1.6.38,3.18.77,4.77,1.17l.14,0,2.23.55.42.11.86.21.54.14.11,0c1.22.3,2.43.62,3.63.93l.13,0,3.56.92,1.33.35,5.33,1.43q2.58.69,5.15,1.41l.12,0,3.17.88.16,0,3.2.9.06,0c1.14.32,2.3.65,3.44,1l.23.06c1.85.53,3.88,1.13,6.39,1.89l.12,0,3.24,1,.78.23c2.15.65,4.29,1.31,6.46,2,1.63.5,3.26,1,4.9,1.54q3.17,1,6.3,2l.11,0,1.65.54,0,0c2.07.68,4.13,1.38,6.2,2.08l.11,0,4.92,1.68.34.12.29.1,4.55,1.59.06,0c2.23.78,4.21,1.49,6,2.16l.19.06,3.85,1.4,5.07,1.87.16.07c.93.33,1.84.67,2.76,1l.19.07,1.77.68.18.06c4.79,1.81,9.82,3.77,14.93,5.83l.06,0,4.3,1.74c1.92.78,3.73,1.51,5.51,2.26l.07,0,5,2.09,3.44,1.46,1.07.46.45.19.16.07.44.19,4.27,1.86c1.64.71,3.28,1.44,4.92,2.17l.06,0c2.27,1,4.62,2.06,7,3.15l.09.05,1.28.58,1.31.6c3.55,1.62,7.14,3.3,10.66,5l5.22,2.51.07,0c3.27,1.58,6.29,3.06,9.22,4.54l0,0,3.54,1.78.29.15c.62.3,1.28.63,2,1l.18.08,1.08.56,1.32.67c6.17,3.15,12.48,6.48,18.74,9.89l.1.06c1.43.76,2.92,1.58,4.6,2.51q2.3,1.26,4.58,2.55l.09,0c1.12.61,2.23,1.24,3.35,1.88q2,1.14,4,2.29l.08,0c5.27,3,10.73,6.2,16.24,9.52l.07,0,3.72,2.25c5.79,3.51,11.84,7.29,18,11.25,1.59,1,3,1.93,4.34,2.81l.05,0,3.12,2c1.68,1.1,3.36,2.2,5,3.32l.07,0q2.51,1.66,5,3.36l.07,0c7.74,5.22,15.5,10.65,23.06,16.12l.08.06c1.42,1,2.82,2,4.23,3.08l.06,0c1.82,1.32,3.29,2.4,4.62,3.4l.09.06c2.62,1.95,5.28,3.95,7.89,5.94l.14.11c1,.78,2.09,1.57,3.11,2.37l.21.16c.88.67,1.77,1.35,2.65,2l.08.06c1.83,1.41,3.65,2.84,5.49,4.29,1.56,1.22,3.12,2.47,4.68,3.7l.38.3.36.29.3.25.34.28c1.34,1,2.74,2.18,4.28,3.45l.15.12c1.8,1.45,3.68,3,5.75,4.7l.11.09.56.47.87.72c2.54,2.1,4.77,4,6.83,5.73l.13.1c1.1.92,2.19,1.86,3.28,2.8l.14.12c.32.26.63.53,1,.81l.11.09,2.46,2.12.06.06.68.59,2,1.73.08.07.32.28,2.46,2.16.13.12c.91.79,1.82,1.58,2.72,2.39l.09.08.15.13c1.22,1.09,2.43,2.16,3.63,3.25l.13.12c1.27,1.13,2.53,2.28,3.8,3.43l.07.07c.84.75,1.68,1.52,2.53,2.31l.92.84c.88.81,1.77,1.62,2.64,2.44l.12.11q1.62,1.48,3.27,3c1.14,1.06,2.27,2.12,3.39,3.2l.23.22c1,1,2.07,1.95,3.1,2.93l0,0,1.37,1.32c.9.86,1.8,1.72,2.72,2.62l2.66,2.58c1.25,1.22,2.49,2.44,3.73,3.68l.06,0,3.72,3.69c5,5,10,10.1,14.73,15.1l.06.06c.89.93,1.77,1.85,2.64,2.79l.19.2c.81.85,1.61,1.69,2.4,2.55l.17.17c1.32,1.4,2.63,2.82,3.62,3.89l.06.07c1.53,1.64,3.15,3.41,5.27,5.74,1.17,1.29,2.35,2.58,3.52,3.89,3.19,3.56,6.07,6.82,8.83,10,1.65,1.89,3.3,3.79,4.93,5.7s3,3.56,4.54,5.34c12.9,17,26.3,34.08,39.82,50.89l.25.3c1.91,2.38,3.83,4.75,5.77,7.15l4.21,5.17c17.62,21.61,35.86,43.19,54.22,64.17,1.5,1.7,3,3.41,4.5,5.1,10.4,11.82,21,23.65,31.58,35.17q2.67,2.92,5.37,5.85h0c2.91,3.16,5.95,6.44,9.29,10q2.82,3,5.69,6.09c1.64,1.76,3.3,3.51,5,5.27l1.6,1.69c3.67,3.88,7,7.4,10.24,10.74,4.55,4.76,8.27,8.61,11.71,12.14h0q2.73,2.82,5.49,5.63c1.61,1.66,3.34,3.42,5.58,5.69,1.85,1.9,3.73,3.79,5.57,5.65,12.81,12.92,26.19,26.12,39.81,39.26l5.61,5.37c14.3,13.7,28.94,27.38,43.52,40.67l0,0,2.1,1.89q2,1.86,4.07,3.7h0c2.22,2,4.45,4,6.64,6l6.71,6,6.72,6c8.9,7.87,18.12,15.91,27.43,23.91q3.24,2.79,6.49,5.55h0c6.71,5.74,13.73,11.67,20.89,17.64l2.4,2,4.53,3.76c4.47,3.7,9.19,7.58,14,11.52,2.2,1.8,4.4,3.58,6.61,5.37l.45.37L2373,2363h0c2.37,1.91,4.77,3.83,7.15,5.72l7.08,5.63,7.15,5.64c2,1.55,3.95,3.1,5.94,4.64,2.81,2.2,5.63,4.38,8.47,6.58,55.17,42.67,112.6,83.29,171,120.95l-3.24,3.45,0,0q-3.14,3.33-6.29,6.63l-.35.38c-.19.2-.38.4-.58.59l-.35.36c-1.71,1.81-3.48,3.64-5.25,5.46l-.32.33-.18.19-.32.33c-1.7,1.76-3.42,3.52-5.13,5.28l-1.16,1.17c-.5.52-1,1-1.52,1.55-.07.06-.13.13-.19.19-1.21,1.24-2.52,2.57-4.26,4.31-.14.13-.27.27-.4.41l-.45.45-.29.28c-1.59,1.62-3.2,3.23-4.81,4.82l0,0-3.1,3.08-.89.88L2539,2554l-.11.11c-1.22,1.22-2.44,2.42-3.68,3.62l-.1.1q-1.73,1.7-3.46,3.36l-.17.17c-1.52,1.49-3.08,3-4.62,4.48a1.31,1.31,0,0,0-.12.11c-1.95,1.9-3.89,3.75-5.39,5.18-3.19,3-6,5.69-8.56,8.09l-.1.1c-1.47,1.39-3,2.79-4.46,4.16l-.06.07q-3.24,3-6.5,6c-4.52,4.16-8.95,8.18-13.16,12-2.16,1.94-4.32,3.86-6.49,5.79l-1.78,1.58-1.64,1.44c-1.59,1.4-3.17,2.8-4.77,4.19-3.71,3.24-6.58,5.72-9.3,8.06l-4.89,4.2h0l-.2.17c-.15.11-.3.24-.44.36-2,1.72-4,3.41-6,5.11l-6.07,5.09-.85.7-3.48,2.89-.15.12c-2,1.66-4.05,3.35-6.08,5l-.11.1q-2.14,1.77-4.31,3.51l-.14.12-2.58,2.08-.22.18c-1.79,1.45-3.64,2.94-5.49,4.41l-.22.18-.71.56-.11.09c-2,1.61-4,3.21-6.08,4.83-10.13,8-20.68,16.1-31.35,24.09-2.21,1.65-4.63,3.45-7.66,5.68-3.5,2.58-6.93,5.09-10.2,7.45l-.08.05c-1.47,1.08-2.95,2.15-4.39,3.19l-.57.4-1.88,1.34-.19.13c-1.41,1-2.84,2-4.26,3l-.09.06-.44.32-.19.13-1.15.82-1.18.84q-3,2.13-6,4.25l0,0-.15.1-.4.27c-2.32,1.63-4.74,3.31-7.19,5l-.21.14-.2.14-.5.33c-1.92,1.34-3.93,2.72-6,4.1l-.08,0c-2,1.39-4.07,2.77-6.16,4.18l-5.3,3.55-.08.05c-4.48,3-9.16,6.09-13.92,9.18l-.07.05c-1.8,1.18-3.61,2.34-5.42,3.51l-.05,0c-9.47,6.11-18.95,12.07-28.18,17.72l-.1.06c-2,1.26-4.06,2.49-6.1,3.73l-.16.1-6.9,4.16c-1.95,1.17-3.78,2.27-5.62,3.34l-.21.12c-1.87,1.12-3.57,2.13-5.2,3.07l-.1.06c-2,1.22-4.21,2.48-6.63,3.88-2.14,1.24-5,2.87-7.75,4.47l-.12.07-.61.35-.81.46-5.56,3.15-.09.05-3.57,2-.82.45,0,0c-2.43,1.37-4.88,2.73-7.33,4.08q-2,1.13-4,2.22l-.27.15c-1.14.64-2.33,1.29-3.59,2l-.05,0-6.81,3.69-.39.2c-1.63.88-3.56,1.92-5.5,2.94l-.22.11c-1.42.78-2.86,1.54-4.08,2.18l-.07,0c-18.74,9.91-38,19.56-57.35,28.71-1.29.61-2.6,1.23-3.91,1.83l-.2.1c-1.81.86-3.64,1.71-5.47,2.56l-.15.07-.06,0c-2.44,1.14-4.69,2.17-6.85,3.15l-.13.06q-2.47,1.15-4.95,2.26l-.15.07-3.47,1.57-.2.09c-1.56.71-3.11,1.4-4.71,2.11-3,1.33-6,2.66-9,4l-1.92.84-3.51,1.52-.44.2-.09,0-.3.12-4.78,2.07c-4.92,2.11-10.11,4.29-15.44,6.5l-.11.05c-1.75.73-3.54,1.48-5.49,2.27l-3.53,1.44-1.48.6-4.46,1.81-5.53,2.2-.31.13-.46.18c-1.86.73-3.71,1.47-5.57,2.19l-.11,0c-3.8,1.5-7.74,3-12.07,4.67-2,.74-3.9,1.49-5.86,2.22l0,0c-6.42,2.43-12.83,4.79-19,7l-4.59,1.65-.08,0c-.76.28-1.53.56-2.31.83l-.08,0-4.34,1.53-1.76.62-4.35,1.51,0,0-6.13,2.11c-4.06,1.39-8.18,2.78-12.27,4.14-4.82,1.6-9.24,3-13.55,4.43-3.84,1.23-7.34,2.34-10.69,3.39l-.1,0-.22.07-.05,0-.32.1-5.92,1.83-.08,0-3.71,1.13-.15.05-1.11.34-1.25.38-6.14,1.85-4.2,1.24c-6.37,1.89-13.2,3.85-20.85,6l-5.53,1.52c-1.85.52-3.7,1-5.55,1.52h-.06c-1.81.5-3.69,1-5.62,1.51l-2.19.58c-2.08.56-4.15,1.1-6.24,1.64l-.06,0-5,1.28-.11,0-4.84,1.23-.09,0-.09,0-.5.12c-3.93,1-7.9,2-11.79,2.92l-.08,0c-1.76.43-3.51.86-5.27,1.27l-.07,0-3.89.92h0c-2.12.51-4.25,1-6.33,1.48l-.09,0-4.36,1h-.06c-7.11,1.62-14.29,3.21-21.34,4.71l-.39.08-5.89,1.24c-6.31,1.31-11.48,2.35-16.25,3.28l-.17,0c-1.94.39-3.68.73-5.31,1l-.26.05-.81.15-1.1.22c-3.08.59-5.66,1.08-8.11,1.52h-.06c-3.3.61-6.83,1.26-10.35,1.88-2.74.49-5.13.91-7.3,1.27l-.11,0c-4.75.82-9.68,1.65-15.11,2.53-2.18.36-4.36.7-6.53,1-4,.64-8.14,1.27-12.18,1.86l-.15,0-1.06.17-2.56.37-3,.43h-.06l-1,.14-.44.06-5.54.78-.34,0a1496.41,1496.41,0,0,1-500.17-15.19l-.19,0-.19,0c-2.33-.47-4.67-.95-7-1.44l-6-1.25-1.06-.22-.08,0-.75-.15-.92-.2c-4.85-1-9.17-2-13.21-2.89l-.07,0-4.88-1.09-1.09-.25-2.52-.58-.17,0-6-1.38c-2.41-.56-4.83-1.14-7.26-1.72-7.35-1.76-15-3.64-22.61-5.61l-.09,0c-2-.51-4-1-6-1.57l-.4-.1c-2-.5-4.09-1.07-6.54-1.73l-.18-.05c-1.92-.5-3.85-1-5.65-1.51l-.07,0c-2.6-.69-5.2-1.41-7.78-2.12l-11-3.08c-2.5-.72-5-1.43-7.51-2.17l-.11,0q-3.2-.92-6.38-1.87l-.09,0-4.8-1.43-7-2.13,0,0c-2.58-.78-5.15-1.57-7.73-2.38l-.07,0c-2.67-.82-5.34-1.67-8-2.51l-.16-.05-.73-.23-.63-.2-7.78-2.51c-2.7-.87-5.39-1.76-8.1-2.65l-10.88-3.65h0l-1.25-.43-5.6-1.92c-3.16-1.09-6.44-2.23-10-3.5l-.16-.05c-2.08-.74-4.17-1.48-6.24-2.23l-.29-.1-.45-.16-.26-.1c-2.77-1-5.32-1.91-7.79-2.82l-.29-.1-.37-.14-.43-.16c-5.87-2.16-11.15-4.13-16.11-6l-.13,0c-3.14-1.2-6.28-2.4-9.43-3.63-5.34-2.07-10.61-4.15-15.67-6.18l-.17-.07-.25-.1-8-3.26-8.36-3.45-.07,0c-2.54-1-5.16-2.15-7.7-3.22-5.56-2.34-11.41-4.86-17.88-7.69-8.51-3.74-16.3-7.24-23.83-10.7l-.06,0c-2.58-1.18-5.23-2.42-7.79-3.61l-.09,0-.26-.12c-2.54-1.19-5.19-2.43-8.13-3.83-2.6-1.22-5.16-2.45-7.33-3.5l-.22-.1-1-.5-.09,0-5.58-2.71-1.91-.93c-2.87-1.4-5.5-2.7-8-4-3.19-1.59-6.07-3-8.79-4.4l-7-3.57-.07,0,0,0-.53-.27c-2.47-1.27-5-2.59-7.49-3.88l-.1-.05c-2.74-1.41-5.52-2.88-7.88-4.13l-.43-.22-.11-.05-.39-.21-.08,0c-2.39-1.26-4.73-2.51-6.9-3.68l-.06,0c-2.43-1.29-4.92-2.64-7.34-4l-1.28-.69-.11-.06-7-3.82c-2.71-1.49-5.42-3-8.08-4.48l-7.25-4.09c-7.89-4.46-15.77-9-23.43-13.57l-.06,0c-2.68-1.58-5.17-3.06-7.6-4.52l-.06,0c-2.6-1.55-4.86-2.91-6.92-4.17l0,0c-1.24-.75-2.48-1.5-3.71-2.26l-.06,0c-4.13-2.52-8.43-5.17-12.78-7.9l-.11-.07c-1.8-1.12-3.78-2.36-6.22-3.91l-.05,0c-5.92-3.74-11.65-7.41-17-10.92l-.06,0c-1.85-1.19-3.68-2.4-5.52-3.61l-.07-.05c-2.83-1.86-5.38-3.55-7.79-5.16l-.13-.09c-1.82-1.2-3.28-2.18-4.59-3.07l-.26-.18c-.94-.62-1.88-1.26-2.8-1.89l-.08-.05c-4.16-2.81-8.2-5.57-12-8.18l-1.47-1-3.7-2.57c-2.52-1.76-5.5-3.84-8.51-6l-.14-.09-4-2.82-.09-.07c-7.32-5.21-14.61-10.5-21.66-15.73l-.1-.07q-2-1.44-3.91-2.91l-.07,0c-5.58-4.15-10.52-7.88-15.13-11.42l-4.3-3.31c-1.62-1.24-3.22-2.48-4.82-3.74l0,0c-1.87-1.45-3.74-2.92-5.61-4.39-.18-.15-.38-.29-.57-.44-1.95-1.53-3.89-3.07-5.84-4.62-6.51-5.17-13.06-10.46-19.47-15.74-1.44-1.18-2.88-2.38-4.33-3.58-7.65-6.33-15.32-12.82-22.81-19.29l-.06-.05-3.78-3.27-1.1-1-.29-.25-5.42-4.74c-3.83-3.38-7.37-6.52-10.85-9.65-1.79-1.6-3.58-3.22-5.36-4.83s-3.57-3.25-5.37-4.9c-1.49-1.35-3-2.71-4.41-4-6.58-6.07-13.1-12.19-19.36-18.19l-.08-.08c-1.39-1.31-2.87-2.73-4.81-4.61l-.08-.07-4.35-4.22c-1.23-1.19-2.46-2.39-3.72-3.63-5.15-5-10.34-10.2-15.43-15.34l-3.51-3.56-.09-.1c-1.81-1.82-3.6-3.65-5.39-5.48s-3.43-3.53-5.14-5.31l0,0c-2-2.09-4-4.17-6-6.27-5.49-5.77-10.49-11.1-15.27-16.28l-.08-.09c-1.38-1.47-2.73-3-4.1-4.44h0v-.1c0-1.51,0-3,.05-4.53,0-3.05.1-6.15.17-9.2,0-.06,0-.12,0-.18,0-.25,0-.5,0-.75l0-1,0-1.21c0-.82,0-1.63.08-2.44V2481c0-.48,0-1,0-1.45s0-.78,0-1.17c0-.11,0-.21,0-.32s0-.33,0-.5c.05-1.52.11-3,.17-4.56v-.07c.06-1.65.13-3.29.21-5,.4-9.13.95-18.22,1.62-27a.53.53,0,0,0,0-.13c.05-.72.11-1.43.17-2.16v-.24c.17-2.24.36-4.46.55-6.69,0-.19,0-.38.05-.56l0-.48.05-.51c0-.17,0-.33,0-.5l.09-.89q.33-3.72.7-7.45v0l0-.32c.25-2.49.5-5,.77-7.46a1.1,1.1,0,0,1,0-.18c0-.52.11-1,.16-1.55v-.09c.17-1.51.33-3,.51-4.54.15-1.35.31-2.68.47-4l0-.2c.11-1.06.24-2.11.38-3.18l0-.24c.08-.74.18-1.47.27-2.21l.15-1.2.05-.41.45-3.48v-.05q.4-3.1.84-6.19s0-.08,0-.11c.2-1.47.41-3,.62-4.41l0-.21c.14-1,.28-1.93.43-2.88l0-.2c.66-4.52,1.37-9.06,2.1-13.5a.59.59,0,0,0,0-.13c.21-1.3.42-2.6.66-3.94l.07-.45c.37-2.15.73-4.29,1.12-6.43,0,0,0-.07,0-.1.39-2.2.72-4,1-5.72a.59.59,0,0,0,0-.13c.27-1.44.53-2.88.81-4.31l0-.14.12-.65c.25-1.33.51-2.66.77-4v-.06c.2-1.07.41-2.14.63-3.2l0-.18c.24-1.24.49-2.46.74-3.67,1.38-6.78,2.89-13.76,4.49-20.73l.31-1.35.36-1.56a.36.36,0,0,0,0-.1c.54-2.33,1.15-4.88,1.93-8.07l.2-.82.4-1.62c1.57-6.45,3.27-13,5-19.52,1-3.65,1.82-6.65,2.61-9.44l.39-1.38c.12-.4.23-.8.35-1.2l0-.13c.6-2.07,1.2-4.15,1.81-6.22,0-.07,0-.15.07-.23.08-.3.17-.6.26-.88,0-.09.06-.2.08-.29.62-2.08,1.24-4.17,1.88-6.25a1,1,0,0,1,.05-.16c0-.11.07-.22.1-.33.83-2.74,1.53-5,2.2-7.1q.84-2.67,1.69-5.34c.82-2.58,1.7-5.27,2.6-8l.5-1.49c.37-1.1.73-2.19,1.1-3.28l0-.14q.78-2.32,1.58-4.62l0-.08c.83-2.44,1.69-4.9,2.56-7.31l.09-.25c.47-1.38,1-2.74,1.46-4.1l.44-1.22c.31-.86.61-1.71.93-2.56l.05-.13,1.87-5.07c.64-1.71,1.24-3.32,1.86-4.92l.07-.19c.33-.88.67-1.75,1-2.63l.53-1.38c1-2.49,1.9-4.91,2.88-7.33,0,0,0-.07,0-.11.8-2,1.66-4.18,2.53-6.31l.05-.11c0-.09.07-.19.11-.28.69-1.7,1.38-3.4,2.08-5.08,1.31-3.2,2.51-6.06,3.68-8.76l.06-.15c.57-1.34,1.15-2.69,1.74-4l.06-.14c1.17-2.72,2.36-5.46,3.58-8.17.83-1.88,1.67-3.75,2.55-5.67s1.82-4,2.75-6l.23-.48q1.43-3.09,2.88-6.16l0-.06c3.11-6.6,6.42-13.4,9.86-20.18l.06-.13c.78-1.56,1.58-3.13,2.34-4.6a.93.93,0,0,1,.05-.1c.82-1.61,1.7-3.34,2.61-5.07l.55-1.05,1.08-2.07,0-.07c1.14-2.18,2.36-4.47,3.63-6.83l0-.05c1.15-2.16,2.32-4.3,3.41-6.29l0,0c2.25-4.13,4.74-8.59,7.61-13.62.9-1.57,1.79-3.12,2.7-4.67l0-.07c1.4-2.43,2.68-4.61,3.9-6.68l0-.06c.08-.15.16-.29.25-.43l.23-.38c1.18-2,2.47-4.16,4.08-6.81l.27-.45c1.36-2.24,2.74-4.5,4.11-6.73l.18-.29c.13-.21.26-.42.4-.63l.16-.26c1.48-2.39,2.83-4.54,4.14-6.6,2.29-3.64,4.38-6.9,6.39-10a.35.35,0,0,0,0-.08l3-4.51,2.08-3.14a.83.83,0,0,0,.08-.12c1-1.44,1.91-2.86,2.89-4.29l0-.07c1.17-1.72,2.34-3.45,3.52-5.16l.07-.11c1.22-1.79,2.47-3.58,3.52-5.09l.07-.1c1-1.52,2.11-3,3.17-4.52a1,1,0,0,1,.08-.11c.15-.22.3-.45.46-.67l.14-.18,3.42-4.81c.78-1.09,1.57-2.17,2.36-3.26l.07-.1c.55-.77,1.11-1.53,1.68-2.3l.75-1c7.39-10.11,15.09-20.16,22.89-29.88,1.26-1.58,2.52-3.15,3.8-4.73,1.09-1.34,2.18-2.68,3.31-4l3.63-4.4,0,0c1.3-1.57,2.61-3.14,3.91-4.67s2.63-3.11,3.95-4.65h0c2.08-2.43,3.76-4.37,5.31-6.14l3.23-3.69.16-.18q1.78-2,3.59-4c2.61-2.93,5.39-6,8.26-9.12l1.78-1.94c3.11-3.38,6.3-6.77,9.47-10.09l0,0c2.77-2.91,5.37-5.6,8-8.27,2-2.07,4.16-4.23,6.52-6.59l.09-.09c.68-.69,1.36-1.37,2-2l.18-.18c2.57-2.57,5.28-5.23,8.29-8.13l.07-.07c.75-.73,1.5-1.46,2.26-2.18l.08-.07c11.46-11,23.28-21.76,35.13-32l.1-.1,4.08-3.5,3.71-3.14c9.43-7.93,19.06-15.71,28.64-23.1l.07-.06c1.73-1.35,3.47-2.67,5.34-4.09,1.26-1,2.54-1.93,3.81-2.89l3.9-2.92,1.63-1.21,2.48-1.82c1.39-1,2.78-2,4.2-3.07,5.2-3.78,10.52-7.56,15.79-11.2,1.83-1.26,3.67-2.53,5.52-3.79l.06,0c1-.66,1.92-1.32,2.89-2l.12-.08c1.43-1,2.85-1.93,4.29-2.88l.13-.09,2.94-2,.26-.17,1.15-.76.25-.16c1.66-1.1,3.33-2.18,5-3.27.89-.59,1.79-1.17,2.69-1.74l.08,0c3.3-2.13,6.68-4.28,10.34-6.56l3.31-2h0c5.51-3.41,11.19-6.82,16.9-10.17l4.3-2.5,5.1-2.93c1.13-.65,2.25-1.29,3.38-1.92l.09-.05c2-1.15,4.18-2.35,6.6-3.69,1.85-1,3.7-2,5.66-3.1l.21-.11,1.2-.65.43-.23c1.48-.81,3.09-1.67,4.78-2.56l.15-.08c2.19-1.18,4.6-2.45,7.38-3.9,3.23-1.67,6.07-3.13,8.67-4.44l.32-.16.08,0,.39-.19q2.17-1.11,4.36-2.19l3.52-1.74.23-.11c1-.51,2.08-1,3.26-1.59l.3-.15.4-.2.46-.23,4.71-2.25.41-.2.13-.06c1.19-.58,2.27-1.09,3.31-1.57l.16-.07c3.19-1.51,6.35-3,9.38-4.36l.13,0c1.24-.58,2.49-1.14,3.73-1.7l.09,0c4.34-2,9-4,13.75-6.06l5-2.12c7.82-3.31,15.79-6.55,23.64-9.59l6.24-2.4c3.27-1.24,6.64-2.51,10-3.75,5.27-1.93,10.54-3.81,15.66-5.57l3.67-1.25.24-.07c1.36-.48,2.75-1,4.13-1.4l.07,0,4.34-1.43.45-.15.07,0,.19-.06c1.42-.47,2.84-.94,4.27-1.39l.08,0,4.45-1.42.15,0c1.45-.47,2.92-.92,4.42-1.39,5-1.54,9.62-2.93,14.19-4.26l1.37-.39,1.27-.37,1.77-.5,1.77-.51.08,0c1.37-.39,2.74-.78,4.12-1.15l.19,0c1.7-.48,3.4-1,5.08-1.4l4-1.07.07,0,3.42-.9.12,0c5.61-1.48,11.37-2.92,17.1-4.28l.07,0c1.14-.27,2.27-.55,3.42-.81l.09,0,4.21-1,.52-.11c1.59-.37,3.17-.73,4.76-1.08l.11,0,.43-.1c1.33-.3,2.66-.6,4-.88l.16,0,.33-.07,2.89-.62.4-.09,2.72-.58.33-.06c3.21-.68,6-1.26,8.69-1.78l.08,0,2.78-.54.26,0c.94-.19,1.88-.38,2.83-.55l.12,0c1.78-.34,3.57-.68,5.4-1,3.91-.73,7.49-1.36,11-2l5.15-.87.21,0,.16,0,.19,0,1.56-.25,3.4-.55.11,0,5.39-.84,5.48-.82c3.64-.53,6.67-1,9.53-1.34h0l1.26-.17,2.4-.31.17,0,4.44-.57h0l1.7-.21c1.18-.15,2.37-.3,3.55-.43l.17,0c1.62-.2,3.34-.4,5.43-.63h.14c1.31-.16,2.6-.3,3.91-.44l.68-.08c1.5-.16,3-.32,4.52-.46l.24,0c1.77-.19,3.3-.35,4.69-.47l.29,0c1.14-.12,2.3-.23,3.44-.33h.1c1.46-.13,2.93-.27,4.4-.39l.31,0,.37,0c1.16-.11,2.33-.2,3.5-.3h.14l3-.24.3,0,2.41-.19.18,0h.2l.48,0,.51,0c1.28-.11,2.56-.2,3.84-.28h.16c1.84-.14,3.68-.25,5.51-.37l6.58-.4.74,0,.46,0h.27c1.64-.1,3.28-.18,4.93-.26h.08l4.65-.22,4.76-.19h.2l5.53-.19c2.59-.09,4.87-.15,7-.19h.13l4.09-.08h.13l4.37-.08,4.49,0h.09c2.4,0,5,0,8.08,0m-183.3,928.32a20,20,0,0,0,6.11-1,582.37,582.37,0,0,1,354.38,0,20,20,0,0,0,25.87-16,207.49,207.49,0,0,0,0-63.26c-15.58-100.74-101-173.86-203.07-173.86s-187.49,73.12-203.07,173.86a207.92,207.92,0,0,0,0,63.26,20,20,0,0,0,19.77,16.94m106.28-925h0m-196.82,40.13h0m-122.12,50.48h0M491.31,2136.13h0m-43.95,115.2h0m-33.8,169.53h0m-3.76,57h0M1289,1608.39q-4.15,0-8.3,0l-4.62,0-4.51.08c-1.46,0-2.92,0-4.37.09-2.4,0-4.81.12-7.21.2l-5.78.2-4.9.2-4.79.22c-1.73.08-3.45.17-5.17.27l-1.35.07-6.78.41c-1.91.12-3.82.24-5.73.38-1.38.09-2.75.19-4.13.3l-1.1.08-2.8.22q-1.7.12-3.39.27l-3.68.31-.58,0-4.55.41c-1.25.11-2.51.23-3.76.36-1.68.15-3.36.32-5,.5s-3.38.34-5.06.52h-.1l-4.37.49q-2.88.32-5.75.67l-5.41.66-4.57.59-3.9.51q-4.89.66-9.76,1.37l-5.56.84q-2.79.42-5.58.87c-1.74.27-3.47.56-5.2.84l-.52.09-5.26.89q-5.62,1-11.22,2l-5.52,1c-1.08.2-2.15.41-3.22.63l-3,.58q-4.47.88-8.91,1.82c-1.11.23-2.23.46-3.34.71s-2.35.5-3.53.76c-1.56.33-3.11.68-4.67,1-1.83.4-3.65.82-5.48,1.24l-4.34,1-3.61.86q-8.82,2.1-17.55,4.39l-3.61,1-4.11,1.1c-1.77.48-3.54,1-5.31,1.46-1.47.4-2.94.81-4.4,1.23l-3.59,1-2.69.78q-7.31,2.12-14.56,4.37c-1.53.47-3.07,1-4.6,1.44l-4.6,1.46q-2.28.72-4.54,1.47l-.58.19-4.5,1.49q-2.24.74-4.44,1.5l-3.85,1.31q-8.07,2.78-16,5.7-5.17,1.89-10.31,3.85l-6.3,2.42q-12.23,4.74-24.25,9.84l-5,2.15q-7.1,3-14.12,6.22l-4,1.8q-4.86,2.2-9.68,4.49c-1.21.56-2.41,1.13-3.61,1.71l-.39.19-4.95,2.37-1,.5c-1.19.57-2.38,1.15-3.56,1.74l-3.7,1.82q-2.26,1.13-4.51,2.27l-.74.37q-4.47,2.25-8.89,4.55-3.84,2-7.64,4c-1.69.89-3.39,1.8-5.07,2.72-.6.31-1.19.63-1.78,1-1.95,1.06-3.9,2.12-5.84,3.2q-3.36,1.86-6.71,3.75-1.8,1-3.6,2l-5.12,2.94-4.45,2.59q-8.73,5.12-17.32,10.42l-3.31,2q-5.34,3.33-10.62,6.73l-2.82,1.82c-1.73,1.12-3.46,2.24-5.18,3.38q-.8.51-1.59,1l-3.13,2.08c-1.51,1-3,2-4.5,3l-3.08,2.09q-2.82,1.92-5.62,3.86-8.16,5.64-16.2,11.49l-4.25,3.1c-1.41,1-2.81,2.08-4.22,3.12l-4,3-3.95,3c-1.84,1.4-3.68,2.8-5.5,4.22q-14.9,11.5-29.29,23.63l-3.78,3.2c-1.43,1.22-2.86,2.44-4.28,3.68q-18.42,15.85-35.94,32.7l-2.44,2.35q-4.31,4.15-8.54,8.38c-.78.76-1.55,1.53-2.32,2.31q-3.36,3.36-6.68,6.75-4.12,4.2-8.18,8.47-4.93,5.16-9.78,10.41l-1.73,1.89q-4.28,4.65-8.48,9.36l-3.65,4.11-.17.19-3.3,3.77c-1.83,2.09-3.65,4.2-5.46,6.31l-4,4.7c-1.36,1.61-2.72,3.23-4.06,4.85s-2.49,3-3.73,4.51-2.26,2.76-3.38,4.14q-1.95,2.4-3.88,4.82-12,15-23.42,30.58c-.84,1.15-1.68,2.29-2.51,3.44s-1.67,2.3-2.49,3.45l-3.45,4.84-.7,1c-1.11,1.57-2.21,3.13-3.3,4.71-1.23,1.76-2.46,3.53-3.67,5.31s-2.43,3.55-3.63,5.33c-1,1.5-2,3-3,4.5-.74,1.1-1.47,2.2-2.2,3.31q-1.51,2.29-3,4.61-3.35,5.1-6.59,10.26c-1.42,2.24-2.82,4.48-4.22,6.74l-.74,1.18q-2.13,3.45-4.23,6.93l-.08.12q-2.21,3.64-4.37,7.3c-.18.29-.35.58-.52.87q-2,3.41-4,6.83c-.94,1.61-1.87,3.22-2.8,4.85q-4,6.95-7.8,14c-1.18,2.15-2.36,4.31-3.52,6.48q-1.89,3.51-3.74,7l-1.67,3.19c-.92,1.75-1.82,3.51-2.72,5.28-.83,1.61-1.66,3.23-2.47,4.86q-5.19,10.26-10.11,20.7c-1,2.12-2,4.24-3,6.37a.51.51,0,0,0-.09.18q-1.49,3.21-2.94,6.42c-.88,1.93-1.74,3.86-2.6,5.79q-1.89,4.21-3.7,8.45-.93,2.13-1.83,4.26-2,4.52-3.82,9.08-1.06,2.59-2.12,5.19a2,2,0,0,0-.14.34c-.88,2.16-1.74,4.32-2.6,6.49-1,2.53-2,5.08-3,7.64-.53,1.39-1.07,2.78-1.59,4.17-.66,1.71-1.3,3.43-1.94,5.15s-1.28,3.44-1.91,5.16c-.49,1.31-1,2.63-1.44,3.95s-1.06,2.94-1.57,4.42q-1.36,3.79-2.67,7.62-.82,2.39-1.64,4.8c-.56,1.63-1.1,3.27-1.65,4.91-.91,2.73-1.81,5.48-2.69,8.23q-.87,2.72-1.72,5.43-1.15,3.65-2.26,7.31c-.05.14-.09.28-.13.42-.66,2.15-1.3,4.31-1.94,6.47-.14.45-.28.92-.41,1.38q-.94,3.2-1.86,6.41c-.26.89-.51,1.79-.77,2.68q-1.36,4.84-2.68,9.71-2.7,10-5.16,20l-.6,2.46c-.68,2.77-1.35,5.55-2,8.34-.23,1-.45,2-.68,2.95q-2.43,10.59-4.61,21.27c-.26,1.28-.52,2.56-.77,3.85-.23,1.13-.45,2.26-.67,3.4-.31,1.58-.61,3.17-.91,4.75s-.58,3.05-.86,4.58q-.57,3-1.09,6c-.42,2.34-.82,4.7-1.22,7.05q-.36,2.08-.69,4.17-1.14,6.9-2.16,13.85c-.17,1.08-.33,2.17-.48,3.26-.23,1.55-.45,3.11-.66,4.66q-.45,3.18-.87,6.38c-.18,1.34-.35,2.69-.52,4s-.31,2.42-.45,3.63-.29,2.33-.42,3.49c-.17,1.39-.33,2.77-.49,4.16-.18,1.56-.35,3.12-.52,4.68-.07.62-.14,1.24-.2,1.86-.27,2.54-.53,5.07-.78,7.61,0,.12,0,.25,0,.38-.25,2.56-.49,5.11-.72,7.67,0,.47-.09.94-.13,1.41s-.09,1-.12,1.51c-.2,2.29-.39,4.57-.57,6.87-.07.86-.14,1.71-.2,2.57q-1,13.77-1.66,27.66c-.08,1.72-.16,3.44-.22,5.16-.06,1.56-.12,3.13-.17,4.69,0,.25,0,.49,0,.74,0,.88-.05,1.78-.08,2.66-.05,1.32-.08,2.64-.12,4,0,.61,0,1.22,0,1.83q-.12,4.73-.18,9.46c0,1.55,0,3.1-.05,4.65q0,4,0,7.95l4.95,5.42c1.52,1.66,3,3.3,4.57,5q7.67,8.31,15.49,16.51,3.06,3.21,6.13,6.38,2.63,2.73,5.26,5.43t5.47,5.57q1.8,1.84,3.62,3.67,7.77,7.84,15.64,15.55l3.8,3.71q2.2,2.15,4.42,4.28c1.65,1.6,3.31,3.2,5,4.78q9.74,9.32,19.63,18.44l4.48,4.11,5.43,4.95,5.45,4.91q5.47,4.92,11,9.76l5.51,4.82,0,0c1.74,1.51,3.48,3,5.23,4.53q11.48,9.91,23.14,19.57l4.38,3.62q9.79,8.07,19.74,16l6.18,4.89.26.19q2.86,2.27,5.75,4.5l4.93,3.82,4.35,3.34q7.62,5.85,15.33,11.58,2.05,1.54,4.12,3.06,10.91,8.08,22,16,2.09,1.5,4.19,3,4.34,3.09,8.69,6.11l5.2,3.61q6.06,4.18,12.17,8.31c1,.69,2,1.38,3.06,2.06q2.42,1.65,4.85,3.25,4,2.67,8,5.29,2.83,1.88,5.68,3.72,8.6,5.61,17.27,11.08,3.21,2,6.43,4,6.48,4.07,13,8l3.81,2.32q3.54,2.16,7.08,4.27,3.88,2.34,7.78,4.63,11.82,7,23.78,13.77,3.64,2.07,7.31,4.12,4.11,2.29,8.24,4.57l7,3.85,1.43.78c2.49,1.35,5,2.7,7.48,4s4.69,2.51,7,3.75c.32.17.64.35,1,.51q4,2.11,8,4.21c2.56,1.34,5.13,2.66,7.7,4l.6.31,7.07,3.6q4.46,2.25,8.93,4.47,4.06,2,8.15,4l7.58,3.68,1.35.65c2.49,1.2,5,2.39,7.47,3.57q4.11,1.95,8.23,3.87l.34.16c2.64,1.23,5.28,2.46,7.93,3.67q12,5.53,24.16,10.85,9,4,18.16,7.81c2.61,1.1,5.22,2.2,7.84,3.28l8.45,3.49,8.2,3.32.42.17q7.92,3.18,15.89,6.27,4.82,1.88,9.65,3.71,8.15,3.09,16.34,6.1l1.1.4q4,1.45,7.94,2.88l1,.34,6.5,2.32q5.09,1.8,10.19,3.56l6.94,2.38q5.49,1.86,11,3.69,4.11,1.36,8.23,2.7l7.86,2.53,1.55.49c2.71.86,5.43,1.72,8.15,2.56s5.24,1.62,7.86,2.42c2.4.74,4.8,1.46,7.21,2.18l4.9,1.46q3.27,1,6.56,1.92c2.55.75,5.11,1.48,7.67,2.21q5.55,1.58,11.12,3.12c2.64.73,5.29,1.46,7.94,2.17,2,.53,3.91,1.06,5.87,1.57q3.39.91,6.78,1.79l.22.06c2.1.55,4.2,1.1,6.3,1.63q11.45,2.94,23,5.69c2.46.59,4.93,1.18,7.39,1.75l6,1.4c1.26.3,2.52.58,3.79.87l5,1.12q6.72,1.51,13.48,2.95l1.75.37,7.1,1.49,7.26,1.49.21,0a1516.28,1516.28,0,0,0,506.88,15.4l6-.85,1.45-.2,5.62-.82,1.17-.18q6.21-.92,12.39-1.89l6.63-1.06q7.66-1.24,15.3-2.56,3.76-.63,7.53-1.31,5.23-.93,10.45-1.9,4.21-.76,8.41-1.58l2-.38q2.82-.53,5.63-1.1,8.28-1.6,16.51-3.33l6.36-1.34q10.86-2.31,21.64-4.77l4.51-1q3.29-.75,6.54-1.53l3.92-.93c1.83-.43,3.65-.87,5.48-1.32q6-1.46,12-3l.68-.17,5-1.27,5.07-1.31c2.14-.55,4.27-1.11,6.41-1.68l2.14-.57q2.93-.76,5.82-1.56l5.64-1.54L1904,2945q10.63-3,21.2-6.09l4.17-1.23,6.31-1.9,2.43-.74,3.88-1.19q3-.93,6.09-1.89l.64-.2q5.43-1.7,10.85-3.44,6.89-2.2,13.74-4.49,6.24-2.07,12.45-4.2l6.21-2.14,6.19-2.16,4.41-1.56,2.57-.92,4.59-1.65q9.7-3.49,19.34-7.14l6-2.27q6.15-2.34,12.27-4.75c1.91-.74,3.82-1.5,5.73-2.26l.74-.29,5.61-2.24,6-2.45,3.51-1.43q2.86-1.17,5.72-2.37,7.86-3.25,15.67-6.6l4.89-2.11.73-.32c1.84-.79,3.68-1.6,5.52-2.4q4.59-2,9.15-4.05c1.62-.72,3.23-1.44,4.85-2.18q1.86-.82,3.72-1.68,2.57-1.15,5.13-2.34,3.54-1.61,7.07-3.26c1.94-.9,3.88-1.8,5.81-2.72l4.07-1.91q29.43-13.93,58.13-29.1c1.45-.76,2.89-1.52,4.33-2.3,1.9-1,3.8-2,5.69-3l.12-.06q3.6-1.93,7.17-3.88c1.29-.7,2.58-1.4,3.86-2.12l4.19-2.3c2.49-1.38,5-2.76,7.45-4.15,1.52-.85,3.05-1.7,4.57-2.57l5.66-3.21,1.5-.86q3.95-2.25,7.88-4.54,3.39-2,6.77-4,2.7-1.57,5.38-3.18c2-1.14,3.91-2.31,5.86-3.48,2.34-1.4,4.68-2.81,7-4.22,2.14-1.3,4.28-2.6,6.41-3.92q14.41-8.82,28.59-18c1.87-1.2,3.73-2.4,5.59-3.62q7.11-4.62,14.15-9.33c1.81-1.2,3.62-2.42,5.43-3.64,2.1-1.41,4.18-2.82,6.26-4.24s4.13-2.81,6.19-4.24c.28-.18.55-.37.82-.56q3.69-2.54,7.36-5.11l.53-.36q3.08-2.14,6.13-4.31l2.41-1.71.63-.45q2.24-1.58,4.46-3.18l2.54-1.81,4.55-3.29q5.22-3.76,10.39-7.59,3.89-2.87,7.75-5.75,16-12,31.77-24.41c2.06-1.62,4.12-3.26,6.17-4.9l1-.79q2.85-2.26,5.68-4.57c1-.76,1.91-1.53,2.86-2.31q2.25-1.82,4.49-3.66,3.14-2.55,6.24-5.13c1.51-1.23,3-2.48,4.5-3.73q3.09-2.58,6.17-5.17c2.05-1.73,4.1-3.46,6.14-5.21l.61-.51,4.94-4.23q4.73-4.06,9.41-8.16c2.18-1.9,4.35-3.82,6.52-5.73,2.8-2.49,5.6-5,8.38-7.47q6.69-6,13.32-12.11,3.32-3,6.6-6.11,2.34-2.16,4.65-4.35,4.38-4.1,8.71-8.24c1.85-1.76,3.69-3.52,5.52-5.3q2.42-2.31,4.81-4.66,1.83-1.76,3.64-3.54t3.85-3.78l2.59-2.56,3.18-3.16q2.47-2.46,4.94-5c.36-.35.71-.7,1.05-1.06,1.49-1.49,3-3,4.45-4.5.93-.93,1.85-1.88,2.78-2.82q2.64-2.7,5.27-5.42c.26-.27.52-.53.77-.8,1.81-1.86,3.62-3.74,5.41-5.62.43-.43.84-.87,1.26-1.31q3.2-3.34,6.38-6.72t6.59-7q3.3-3.54,6.59-7.11t6.46-7.07q-97-61.2-189.67-132.77-4.2-3.26-8.39-6.52-3-2.29-5.89-4.61l-7.09-5.59q-3.54-2.8-7.07-5.62t-7-5.64l-7-5.66-7-5.68q-7-5.68-13.9-11.42l-6.91-5.74q-10.42-8.68-20.71-17.48l-6.45-5.51q-13.7-11.78-27.17-23.7-3.34-3-6.67-5.93l-6.64-5.95q-3.32-3-6.62-6l-6.13-5.56q-21.89-20-43.16-40.33l-5.57-5.34q-20-19.29-39.47-38.93c-1.85-1.86-3.7-3.73-5.53-5.6s-3.69-3.74-5.51-5.62-3.67-3.75-5.49-5.63q-5.84-6-11.59-12-5.11-5.32-10.16-10.66-3.26-3.45-6.49-6.89-2.84-3-5.64-6-4.65-5-9.26-10c-1.78-1.92-3.54-3.84-5.3-5.76q-15.86-17.31-31.31-34.87l-4.46-5.07q-27.51-31.43-53.77-63.63l-4.2-5.16q-3-3.66-5.92-7.33l0,0q-20.24-25.15-39.71-50.76l0,0,0,0q-2.49-2.94-5-5.87t-5-5.83q-4.47-5.14-9-10.21-1.8-2-3.62-4c-1.79-2-3.59-3.94-5.4-5.89-1.27-1.38-2.54-2.75-3.83-4.11-.87-.94-1.74-1.86-2.63-2.79s-1.89-2-2.85-3q-7.44-7.81-15.08-15.45l-3.83-3.8-3.85-3.79-2.73-2.65-4.16-4c-1.11-1.06-2.23-2.13-3.35-3.17s-2.38-2.26-3.58-3.38l-3.38-3.14c-1.22-1.14-2.46-2.27-3.69-3.4-.89-.82-1.78-1.64-2.68-2.45-1.31-1.19-2.62-2.38-3.93-3.55s-2.63-2.36-4-3.54c-1-.88-2-1.75-3-2.61l-2.86-2.51c-1-.84-1.91-1.66-2.86-2.48l-2.56-2.21-1.17-1c-1.16-1-2.33-2-3.5-3q-3.54-3-7.12-6l-1.46-1.21q-3-2.46-6-4.88-2.27-1.86-4.56-3.68l-.86-.7c-1.75-1.39-3.51-2.79-5.27-4.17s-3.74-2.94-5.62-4.39c-.95-.74-1.91-1.48-2.86-2.2q-1.7-1.32-3.42-2.61-4-3.07-8.1-6.09c-1.6-1.2-3.22-2.39-4.84-3.57s-2.94-2.16-4.42-3.22q-11.67-8.44-23.61-16.5-2.58-1.75-5.18-3.48c-1.73-1.16-3.47-2.3-5.21-3.44l-3.16-2.06q-2.27-1.49-4.55-2.94-9.13-5.85-18.41-11.49l-3.85-2.32q-8.27-5-16.66-9.77-2.08-1.2-4.19-2.38l-3.45-1.94c-1.58-.89-3.17-1.77-4.75-2.64s-3.18-1.75-4.78-2.61q-9.56-5.21-19.26-10.16l-2.42-1.24c-.81-.42-1.62-.83-2.44-1.23l-3.66-1.84q-4.74-2.38-9.54-4.69l-5.34-2.57q-5.45-2.6-11-5.12l-2.63-1.2q-3.65-1.68-7.33-3.3l-5-2.21-4.4-1.91-1.05-.45-4.61-2-5-2.12c-1.9-.8-3.82-1.58-5.74-2.36l-4.42-1.79q-7.63-3.07-15.34-6l-2-.77c-1-.4-2.08-.79-3.13-1.17l-5.16-1.91-4-1.46q-3.15-1.15-6.33-2.26l-4.69-1.64-.55-.19q-2.58-.9-5.19-1.77l-6.36-2.13-1.83-.6q-3.24-1.07-6.49-2.1l-5-1.58q-3.3-1-6.61-2l-4.16-1.25c-2.22-.67-4.44-1.33-6.68-2-1.24-.37-2.49-.73-3.73-1.08l-3.36-1L1530,1641c-1.78-.5-3.57-1-5.35-1.47l-5.44-1.46c-1.69-.44-3.39-.89-5.09-1.32l-3.84-1c-.59-.15-1.19-.31-1.79-.45l-2.45-.61q-2.5-.63-5-1.23c-1.65-.4-3.3-.8-5-1.18q-5.31-1.26-10.66-2.44c-1.36-.31-2.73-.61-4.09-.9l-4.13-.89q-5-1.06-10-2.07l-2.36-.47q-8.31-1.65-16.67-3.14l-3.74-.66h0c-1.73-.31-3.46-.6-5.2-.89l-3.83-.64q-3.09-.51-6.21-1l-3.62-.55c-1-.17-2-.32-3.07-.47l-2.78-.41-1.22-.17-3.61-.52q-3.07-.43-6.17-.84l-3.59-.47-2.6-.33q-3.08-.39-6.16-.75c-1.71-.21-3.42-.41-5.14-.6l-6.3-.69-6-.62-4.33-.41-3.4-.32q-6-.55-12.08-1l-4.92-.36c-.66-.06-1.33-.1-2-.14-1.46-.11-2.91-.21-4.37-.3l-3.8-.23q-5.36-.33-10.73-.59c-1.85-.09-3.71-.18-5.56-.25q-8.89-.37-17.83-.58l-3.3-.07c-1.2,0-2.42,0-3.63-.06l-2.63,0-4.32,0-7,0Zm-183.3,928.32a187.45,187.45,0,0,1,0-57.14c13.74-88.88,90.57-156.92,183.3-156.92s169.56,68,183.3,156.92a187.45,187.45,0,0,1,0,57.14,602.29,602.29,0,0,0-366.6,0Z"/><path class="c" d="M1474.53,2508.14a186.81,186.81,0,0,1-2.19,28.57,602.29,602.29,0,0,0-366.6,0,187.45,187.45,0,0,1,0-57.14c13.74-88.88,90.57-156.92,183.3-156.92s169.56,68,183.3,156.92A186.81,186.81,0,0,1,1474.53,2508.14Z"/><path class="a" d="M1722.45,2983.61q6.21-.92,12.39-1.89C1730.71,2982.37,1726.58,2983,1722.45,2983.61Z"/><path class="a" d="M2501.89,2616.36q6.69-6,13.32-12.11Q2508.58,2610.36,2501.89,2616.36Z"/><path class="a" d="M3000,1500q0,4.55,0,9.09c0,3,0,6.05-.08,9.08,0,1.55,0,3.09-.07,4.64,0,2.08-.06,4.17-.1,6.25q-.07,4.34-.19,8.67c-.07,2.85-.14,5.68-.23,8.52q-.11,3.66-.24,7.3c0,.5,0,1-.06,1.51q-.08,2.37-.18,4.74-.14,3.9-.32,7.8c-.11,2.62-.24,5.25-.37,7.87-.06,1.38-.13,2.77-.21,4.15-.13,2.62-.28,5.23-.43,7.84q-.19,3.36-.4,6.7c-.07,1.18-.15,2.37-.22,3.55q-.24,3.68-.49,7.33c0,.36-.05.72-.08,1.08-.12,1.77-.25,3.54-.38,5.3s-.28,3.81-.43,5.71q-.3,4-.63,7.95c-.15,1.8-.3,3.61-.46,5.41l-.39,4.45q-1.19,13.35-2.61,26.61c-.22,2.12-.46,4.24-.7,6.36s-.44,4-.68,6c-.29,2.57-.6,5.14-.91,7.7s-.61,5-.93,7.57l-.57,4.47c-.22,1.73-.45,3.46-.68,5.18-.19,1.44-.38,2.88-.58,4.32s-.35,2.62-.54,3.93c-.26,2-.53,3.89-.82,5.84q-.51,3.68-1.06,7.35c-.28,2-.58,3.94-.88,5.91-.22,1.48-.45,3-.68,4.44-.13.89-.27,1.78-.41,2.67-.36,2.34-.74,4.68-1.11,7,0,.21-.07.41-.1.61q-.64,4-1.32,8c-.4,2.44-.82,4.88-1.24,7.32q-.71,4.13-1.44,8.24-2.49,14-5.24,27.89c-.56,2.87-1.14,5.73-1.72,8.59s-1.17,5.72-1.77,8.57q-.64,3.06-1.3,6.11-1.29,6.08-2.65,12.13-.6,2.68-1.21,5.37c-.23,1.06-.48,2.12-.72,3.18q-.78,3.39-1.57,6.76c-.07.32-.15.65-.23,1-.5,2.16-1,4.31-1.53,6.47-.35,1.47-.7,2.94-1.06,4.41l-.75,3.08q-.73,3-1.49,6c-.26,1.07-.53,2.13-.8,3.18-.36,1.43-.72,2.86-1.09,4.29q-.67,2.67-1.36,5.32c-.68,2.63-1.37,5.27-2.07,7.89-.61,2.32-1.22,4.63-1.85,6.94-.39,1.46-.79,2.92-1.19,4.38q-2,7.31-4.05,14.56c-.84,3-1.7,5.93-2.56,8.89q-2.39,8.21-4.86,16.38-1.23,4-2.48,8.09-.78,2.55-1.59,5.09c-.47,1.53-1,3.06-1.44,4.59q-1.92,6-3.88,12-.83,2.54-1.66,5.06t-1.74,5.22c-.17.53-.34,1-.52,1.57-.74,2.2-1.48,4.41-2.24,6.6q-2,5.83-4,11.64l-1.41,4-2.07,5.81c-.24.69-.49,1.37-.74,2.06q-1,2.7-2,5.4-1.09,3-2.22,6.06c-.8,2.17-1.6,4.34-2.42,6.51q-1.54,4.17-3.14,8.32-2.47,6.52-5,13-2.09,5.35-4.23,10.68-1.59,4-3.21,7.94c-.57,1.42-1.15,2.82-1.73,4.23q-1.14,2.79-2.3,5.56c-1.08,2.62-2.18,5.23-3.28,7.84-.26.63-.53,1.25-.8,1.88q-1.26,3-2.53,5.93-1.42,3.35-2.88,6.68c-.89,2-1.78,4.08-2.69,6.12s-1.86,4.23-2.81,6.34c-.76,1.72-1.53,3.45-2.31,5.17q-.93,2.08-1.88,4.15-1.39,3.09-2.81,6.17-1.87,4.08-3.78,8.15-1.68,3.62-3.39,7.22-8.43,17.8-17.32,35.35-1.62,3.22-3.27,6.44-7.83,15.28-16,30.37c-.66,1.22-1.32,2.44-2,3.66q-1.51,2.78-3,5.54c-.18.35-.37.7-.57,1q-2,3.71-4.1,7.38c-1.38,2.48-2.78,5-4.17,7.43l-.65,1.14q-1.55,2.73-3.11,5.45l-1.5,2.62q-1.32,2.28-2.65,4.56-1.1,1.91-2.22,3.81c-1.24,2.14-2.5,4.27-3.76,6.4q-2.29,3.9-4.63,7.78-4.68,7.82-9.46,15.58-2.34,3.8-4.7,7.57t-4.81,7.65q-5.28,8.37-10.69,16.66c-1.26,1.94-2.52,3.87-3.8,5.79-.21.33-.42.66-.65,1q-2.25,3.45-4.55,6.87-2.51,3.75-5,7.5c-1.56,2.32-3.14,4.63-4.71,6.94l-.92,1.33q-1.61,2.36-3.23,4.7l-2.13,3.08c-1.1,1.58-2.2,3.16-3.32,4.74q-8.28,11.84-16.8,23.51-2.65,3.65-5.33,7.27t-5.38,7.24l0,.05q-2.68,3.58-5.39,7.15-8.4,11.09-17,22-2.53,3.24-5.1,6.45-2.8,3.53-5.63,7t-5.67,7q-2.82,3.46-5.68,6.92l-.08.1q-2.09,2.53-4.2,5.06l-2.93,3.51q-9,10.74-18.17,21.29l-4.56,5.21q-8.34,9.51-16.85,18.87-97-61.2-189.67-132.77-4.2-3.26-8.39-6.52-3-2.29-5.89-4.61l-7.09-5.59q-3.54-2.8-7.07-5.62t-7-5.64l-7-5.66-7-5.68q-7-5.68-13.9-11.42l-6.91-5.74q-10.42-8.68-20.71-17.48l-6.45-5.51q-13.7-11.78-27.17-23.7-3.34-3-6.67-5.93l-6.64-5.95q-3.32-3-6.62-6l-6.13-5.56q-21.89-20-43.16-40.33l-5.57-5.34q-20-19.29-39.47-38.93c-1.85-1.86-3.7-3.73-5.53-5.6s-3.68-3.74-5.51-5.62-3.67-3.75-5.49-5.63q-5.84-6-11.59-12-5.1-5.32-10.16-10.66-3.26-3.45-6.49-6.89-2.84-3-5.64-6-4.65-5-9.26-10-2.66-2.87-5.3-5.76-15.86-17.31-31.31-34.87l-4.46-5.07q-27.51-31.43-53.77-63.63l-4.2-5.16q-3-3.66-5.92-7.33l0,0q-20.24-25.15-39.71-50.76l0,0,0,0c-165-196.09-412.31-320.69-688.68-320.69-496.92,0-899.75,402.83-899.75,899.75q-8.51-9.36-16.85-18.87l-4.56-5.21q-9.18-10.56-18.17-21.29l-2.93-3.51q-2.11-2.52-4.2-5.06l-.08-.1q-2.85-3.45-5.68-6.92t-5.67-7q-2.83-3.51-5.63-7-2.56-3.21-5.1-6.45-8.61-10.93-17-22-2.7-3.57-5.39-7.15l0-.05q-2.7-3.61-5.38-7.24t-5.33-7.27q-8.52-11.67-16.8-23.51c-1.12-1.58-2.22-3.16-3.32-4.74l-2.13-3.08q-1.62-2.34-3.23-4.7l-.92-1.33c-1.57-2.31-3.15-4.62-4.71-6.94q-2.53-3.75-5-7.5-2.29-3.42-4.55-6.87c-.23-.33-.44-.66-.65-1-1.28-1.92-2.54-3.85-3.8-5.79q-5.4-8.3-10.69-16.66-2.42-3.81-4.81-7.65t-4.7-7.57q-4.77-7.76-9.46-15.58-2.34-3.89-4.63-7.78c-1.26-2.13-2.52-4.26-3.76-6.4q-1.12-1.9-2.22-3.81-1.33-2.28-2.65-4.56l-1.5-2.62q-1.56-2.71-3.11-5.45l-.65-1.14c-1.39-2.47-2.79-5-4.17-7.43s-2.75-4.91-4.1-7.38c-.2-.34-.39-.69-.57-1q-1.53-2.76-3-5.54c-.67-1.22-1.33-2.44-2-3.66q-8.17-15.09-16-30.37-1.65-3.21-3.27-6.44-8.9-17.55-17.32-35.35-1.71-3.6-3.39-7.22-1.91-4.07-3.78-8.15-1.41-3.07-2.81-6.17-.94-2.07-1.88-4.15c-.78-1.72-1.55-3.45-2.31-5.17q-1.43-3.17-2.81-6.34c-.91-2-1.8-4.08-2.69-6.12q-1.45-3.33-2.88-6.68-1.27-3-2.53-5.93c-.27-.63-.54-1.25-.8-1.88-1.1-2.61-2.2-5.22-3.28-7.84q-1.16-2.78-2.3-5.56c-.58-1.41-1.16-2.81-1.73-4.23q-1.62-4-3.21-7.94-2.14-5.33-4.23-10.68-2.55-6.49-5-13-1.59-4.15-3.14-8.32c-.82-2.17-1.62-4.34-2.42-6.51s-1.49-4-2.22-6.06q-1-2.7-2-5.4c-.25-.69-.5-1.37-.74-2.06l-2.07-5.81-1.41-4q-2-5.8-4-11.64c-.76-2.19-1.5-4.4-2.24-6.6-.18-.52-.35-1-.52-1.57q-.89-2.61-1.74-5.22t-1.66-5.06q-2-6-3.88-12c-.48-1.53-1-3.06-1.44-4.59q-.81-2.53-1.59-5.09-1.24-4-2.48-8.09-2.47-8.17-4.86-16.38c-.86-3-1.72-5.92-2.56-8.89q-2.05-7.26-4-14.56c-.4-1.46-.8-2.92-1.19-4.38-.63-2.31-1.24-4.62-1.85-6.94-.7-2.62-1.39-5.26-2.07-7.89q-.69-2.65-1.36-5.32c-.37-1.43-.73-2.86-1.09-4.29-.27-1-.54-2.11-.8-3.18q-.75-3-1.49-6l-.75-3.08c-.36-1.47-.71-2.94-1.06-4.41-.52-2.16-1-4.31-1.53-6.47-.08-.32-.16-.65-.23-1q-.8-3.37-1.57-6.76c-.24-1.06-.49-2.12-.72-3.18q-.62-2.68-1.21-5.37-1.35-6-2.65-12.13-.66-3-1.3-6.11-.9-4.27-1.77-8.57c-.58-2.86-1.16-5.72-1.72-8.59q-2.76-13.89-5.24-27.89-.73-4.11-1.44-8.24c-.42-2.44-.84-4.88-1.24-7.32q-.67-4-1.32-8c0-.2-.07-.4-.1-.61-.37-2.33-.75-4.67-1.11-7-.14-.89-.28-1.78-.41-2.67-.23-1.48-.46-3-.68-4.44-.3-2-.6-3.94-.88-5.91q-.56-3.68-1.06-7.35c-.29-2-.56-3.89-.82-5.84q-.28-2-.54-3.93c-.2-1.44-.39-2.88-.58-4.32-.23-1.72-.46-3.45-.68-5.18l-.57-4.47q-.48-3.78-.93-7.57c-.31-2.56-.62-5.13-.91-7.7-.24-2-.46-4-.68-6s-.48-4.24-.7-6.36Q7.18,1648.29,6,1634.94l-.39-4.45c-.16-1.8-.31-3.61-.46-5.41q-.33-4-.63-7.95-.22-2.85-.43-5.71c-.13-1.76-.26-3.53-.38-5.3,0-.36-.05-.72-.08-1.08q-.25-3.66-.49-7.33c-.07-1.18-.15-2.37-.22-3.55q-.21-3.35-.4-6.7c-.15-2.61-.3-5.22-.43-7.84-.08-1.38-.15-2.77-.21-4.15-.13-2.62-.26-5.25-.37-7.87s-.23-5.2-.32-7.8q-.1-2.37-.18-4.74c0-.51,0-1-.06-1.51q-.13-3.65-.24-7.3c-.09-2.84-.16-5.67-.23-8.52s-.14-5.78-.19-8.67c0-2.08-.08-4.17-.1-6.25,0-1.55,0-3.09-.07-4.64,0-3-.07-6.05-.08-9.08S0,1503,0,1500s0-6.07,0-9.1q0-3.83.07-7.63c0-1.51,0-3,0-4.55,0-2.46.07-4.93.12-7.39,0-.33,0-.67,0-1,0-2.12.08-4.24.14-6.36q.08-3.66.19-7.3.18-6.72.44-13.43c0-1.21.09-2.41.14-3.62.08-2.22.17-4.43.28-6.65.1-2.41.21-4.81.33-7.22.07-1.55.15-3.1.23-4.65q.21-3.94.43-7.87.25-4.55.54-9.08c.23-3.68.48-7.35.74-11q.27-3.91.57-7.82c.06-.75.11-1.5.17-2.25q.3-3.88.62-7.77c0-.14,0-.28,0-.42q.34-4.24.72-8.48l.12-1.3q.25-3,.54-5.94c.13-1.41.26-2.82.4-4.24q.77-8,1.61-15.89c.16-1.53.33-3,.5-4.58q.32-3,.66-5.93l.18-1.59c.33-2.86.66-5.71,1-8.56.32-2.65.64-5.3,1-7.95q.69-5.45,1.41-10.9.6-4.43,1.21-8.84.54-3.83,1.09-7.65c.24-1.64.48-3.28.73-4.92.18-1.29.38-2.59.57-3.88.24-1.6.49-3.2.74-4.8.15-1,.31-2.05.48-3.08.31-2,.62-4,.95-6,.49-3.08,1-6.16,1.51-9.24.41-2.45.82-4.9,1.25-7.35s.89-5.16,1.36-7.74c.19-1.15.4-2.31.62-3.46.42-2.42.87-4.85,1.32-7.27q.84-4.61,1.73-9.2c.47-2.45.94-4.89,1.43-7.33q1-5.21,2.08-10.4.78-3.85,1.59-7.69c.49-2.37,1-4.74,1.51-7.1.07-.34.14-.67.22-1q.67-3.23,1.4-6.44c.5-2.29,1-4.59,1.53-6.88s1-4.3,1.47-6.44q1.17-5.17,2.41-10.34c.37-1.57.74-3.14,1.12-4.7.43-1.79.86-3.57,1.3-5.36.64-2.62,1.29-5.23,1.94-7.85.09-.36.18-.72.28-1.09q.83-3.32,1.67-6.61c.25-1,.51-2,.76-3l1.35-5.19,1.08-4.1q1.83-6.93,3.74-13.82l.33-1.2c.61-2.22,1.22-4.43,1.85-6.64l.36-1.26q.7-2.54,1.44-5.05.86-3.06,1.76-6.11s0,0,0,0c.62-2.13,1.24-4.26,1.88-6.39.42-1.47.86-2.93,1.3-4.39q2.49-8.36,5.1-16.68c.75-2.44,1.52-4.88,2.29-7.31l.42-1.3c.85-2.68,1.7-5.35,2.57-8q1.42-4.38,2.87-8.75t2.92-8.73q2.93-8.62,5.94-17.21l.15-.4q1.48-4.21,3-8.41T91,984.25q1.58-4.31,3.18-8.6t3.17-8.43l.06-.15q1.59-4.16,3.19-8.31c.1-.25.19-.5.29-.76,1-2.67,2.08-5.35,3.14-8,1-2.41,1.9-4.82,2.87-7.22.3-.76.6-1.52.91-2.28,1-2.5,2-5,3-7.48q1.74-4.23,3.49-8.45a1.19,1.19,0,0,1,.08-.2q1.71-4.12,3.45-8.23t3.51-8.24c.1-.22.19-.43.28-.65q1.42-3.32,2.87-6.61l.87-2q1.68-3.81,3.37-7.62,1.84-4.17,3.73-8.32t3.88-8.5q1.76-3.83,3.54-7.65.24-.54.51-1.08,1.55-3.35,3.14-6.68c.31-.67.63-1.35.95-2q1.41-3,2.83-5.9c.27-.58.55-1.16.83-1.73.82-1.71,1.65-3.41,2.48-5.12q4.17-8.57,8.45-17.07c.71-1.41,1.42-2.83,2.14-4.24l2.16-4.25q2.45-4.8,4.93-9.56,2.06-3.95,4.13-7.88,3.87-7.35,7.83-14.64c1.21-2.24,2.42-4.47,3.65-6.69.82-1.52,1.65-3,2.5-4.53q1.65-3,3.34-6c1-1.87,2.08-3.72,3.14-5.58.71-1.28,1.43-2.55,2.16-3.82q3.77-6.63,7.59-13.2l2.1-3.6q1.53-2.61,3.07-5.21c1.23-2.1,2.48-4.19,3.73-6.27q1.56-2.64,3.15-5.25,1.66-2.78,3.35-5.53,8.29-13.62,16.88-27l3.4-5.3c0-.09.11-.18.17-.27q1.91-3,3.84-5.91,10.63-16.33,21.71-32.39c1.3-1.89,2.6-3.78,3.92-5.66q6.5-9.33,13.13-18.57l3.48-4.82q3-4.17,6.07-8.31l3.58-4.85.76-1q2-2.71,4.05-5.43,2.26-3,4.56-6.05t4.58-6l4.62-6,4.44-5.71.39-.5q2.24-2.87,4.5-5.72t4.37-5.51q7.24-9.09,14.63-18.06,2.4-2.92,4.82-5.83,2.19-2.64,4.39-5.26c.37-.45.74-.89,1.12-1.33,1.34-1.6,2.69-3.19,4-4.78q7.44-8.77,15-17.41l3.39-3.87,2.93-3.31q2-2.24,4-4.46c1.58-1.78,3.18-3.56,4.78-5.33s3.38-3.74,5.07-5.6q5.83-6.4,11.74-12.74,2.55-2.75,5.12-5.47l1.34-1.42c1.54-1.64,3.09-3.27,4.63-4.89l1.14-1.19q2.88-3,5.79-6,6.76-7,13.65-14,2.42-2.46,4.86-4.9l1.13-1.13,4.77-4.74q6.84-6.76,13.76-13.44,3.22-3.14,6.49-6.23l6.47-6.14.17-.15q3.15-3,6.32-5.92l.38-.35c1.62-1.52,3.25-3,4.88-4.52q2.12-2,4.24-3.9l4.76-4.34Q501,381,509.86,373.2l4.45-3.9q22.4-19.53,45.55-38.18,3.15-2.55,6.32-5.07c2.61-2.07,5.21-4.13,7.83-6.19q3.11-2.44,6.23-4.87l4.89-3.78q2.72-2.1,5.45-4.18,15.72-12,31.78-23.61c1.78-1.29,3.55-2.57,5.34-3.84s3.53-2.53,5.31-3.79q4.2-3,8.42-5.93,5.12-3.57,10.25-7.1,3.55-2.44,7.12-4.86l4.63-3.13q7.77-5.24,15.63-10.37,8.43-5.55,17-11l4.35-2.76q2.43-1.55,4.87-3.06l4.46-2.78q16.74-10.41,33.79-20.38l4.94-2.88.93-.54,6.1-3.51q7-4,14-7.91,3.52-2,7.08-3.94,2.75-1.51,5.52-3l5.64-3.07,2.8-1.51,4.24-2.27q7.14-3.82,14.33-7.55,4-2.07,8-4.11l.53-.27,6.43-3.28,6.08-3.05,6.14-3.05c2.28-1.13,4.57-2.26,6.86-3.37q8.34-4.06,16.74-8l6.17-2.9.41-.19q4-1.87,8-3.72c2.37-1.09,4.75-2.18,7.13-3.25q8.52-3.87,17.09-7.62c1.91-.84,3.81-1.67,5.72-2.49l5.07-2.19,5.81-2.47q4.69-2,9.39-3.94c2.18-.91,4.38-1.82,6.57-2.71q6.23-2.57,12.49-5.06c2.1-.85,4.21-1.68,6.32-2.51s4-1.59,6-2.37l5.47-2.11,2.71-1,4.69-1.79,2.67-1,5.41-2q10.89-4,21.85-7.94,3.58-1.27,7.18-2.52l6.13-2.12,2.62-.9,5.86-2q6.95-2.35,13.92-4.62l8.87-2.86q3.31-1.07,6.65-2.1c2.07-.66,4.14-1.3,6.22-1.94l2.35-.73q10.53-3.24,21.13-6.32,7.46-2.18,14.94-4.27l6.44-1.79,6.58-1.79c1.56-.43,3.13-.85,4.7-1.26l4.82-1.28,6.37-1.66,4.27-1.1q6.49-1.65,13-3.25c1.42-.36,2.83-.7,4.25-1q13.59-3.3,27.27-6.35l5.75-1.27,8.44-1.82,5.08-1.07,1.79-.37c2.45-.51,4.91-1,7.37-1.51l6-1.21c3.06-.61,6.12-1.2,9.19-1.79s6.13-1.17,9.2-1.73c2.75-.51,5.51-1,8.26-1.51l1-.17q4.62-.83,9.25-1.62l7.52-1.28,2.43-.4,7.41-1.21q5.64-.9,11.29-1.76c2.84-.43,5.67-.86,8.51-1.27h.06c2.75-.4,5.49-.8,8.24-1.18l1.76-.25q3.94-.55,7.9-1.08l2.17-.29,7.71-1,.3,0c3.11-.39,6.22-.78,9.33-1.15q4.07-.5,8.14-1l2.53-.29c2.49-.29,5-.56,7.5-.84l10.41-1.09,7.89-.77,4.2-.4c2.18-.21,4.37-.4,6.56-.6q4.82-.43,9.64-.82c2.69-.23,5.38-.44,8.07-.65q5.42-.42,10.83-.79l7.45-.5.24,0L1405,3q3.8-.24,7.59-.45l1.19-.07q4.15-.24,8.31-.45l1.42-.07c2.88-.15,5.77-.29,8.65-.41q9.19-.42,18.42-.71l3.64-.11c2-.07,4-.12,6-.17l2.64-.07c2.68-.07,5.36-.12,8-.17q4.38-.09,8.76-.15,5.68-.08,11.38-.1,4.45,0,8.92,0t8.92,0q5.7,0,11.38.1,4.38.06,8.76.15c2.68,0,5.36.1,8,.17l2.64.07c2,0,4,.1,6,.17l3.64.11q9.22.3,18.42.71c2.88.12,5.77.26,8.65.41l1.42.07q4.15.21,8.31.45l1.19.07q3.79.21,7.59.45l3.19.2.24,0,7.45.5q5.41.37,10.83.79c2.69.21,5.38.42,8.07.65q4.83.39,9.64.82c2.19.2,4.38.39,6.56.6l4.2.4,7.89.77,10.41,1.09c2.51.28,5,.55,7.5.84l2.53.29q4.08.46,8.14,1c3.11.37,6.22.76,9.33,1.15l.3,0,7.71,1,2.17.29q4,.53,7.9,1.08l1.76.25c2.75.38,5.49.78,8.24,1.18h.06c2.84.41,5.67.84,8.51,1.27q5.65.86,11.29,1.76l7.41,1.21,2.43.4,7.52,1.28q4.63.8,9.25,1.62l1,.17c2.75.49,5.51,1,8.26,1.51q4.61.84,9.2,1.73c3.07.59,6.13,1.18,9.19,1.79l6,1.21c2.46.49,4.92,1,7.37,1.51l1.79.37,5.08,1.07,8.44,1.82,5.75,1.27q13.7,3,27.27,6.35c1.42.34,2.83.68,4.25,1q6.51,1.59,13,3.25l4.27,1.1,6.37,1.66,4.82,1.28c1.57.41,3.14.83,4.7,1.26l6.58,1.79,6.44,1.79q7.48,2.1,14.94,4.27,10.6,3.07,21.13,6.32l2.35.73c2.08.64,4.15,1.28,6.22,1.94s4.44,1.39,6.65,2.1l8.87,2.86q7,2.28,13.92,4.62l5.86,2,2.62.9,6.13,2.12q3.6,1.25,7.18,2.52,10.95,3.89,21.85,7.94l5.41,2,2.67,1,4.69,1.79,2.71,1,5.47,2.11c2,.78,4,1.57,6,2.37s4.22,1.66,6.32,2.51q6.26,2.49,12.49,5.06c2.19.89,4.39,1.8,6.57,2.71q4.7,2,9.39,3.94l5.81,2.47,5.07,2.19c1.91.82,3.81,1.65,5.72,2.49q8.57,3.75,17.09,7.62c2.38,1.07,4.76,2.16,7.13,3.25q4,1.85,8,3.72l.41.19,6.17,2.9q8.4,4,16.74,8c2.29,1.11,4.58,2.24,6.86,3.37l6.14,3.05,6.08,3.05,6.43,3.28.53.27q4,2,8,4.11,7.18,3.73,14.33,7.55l4.24,2.27,2.8,1.51,5.64,3.07q2.77,1.5,5.52,3,3.55,2,7.08,3.94,7,3.92,14,7.91l6.1,3.51.93.54,4.94,2.88q17,10,33.79,20.38l4.46,2.78q2.45,1.51,4.87,3.06l4.35,2.76q8.52,5.4,17,11,7.85,5.13,15.62,10.37l4.63,3.13q3.57,2.42,7.12,4.86,5.14,3.53,10.25,7.1,4.23,3,8.42,5.93,2.67,1.89,5.31,3.79c1.79,1.27,3.56,2.55,5.34,3.84Q2393.69,295,2409.42,307q2.73,2.09,5.45,4.18l4.89,3.78q3.12,2.43,6.23,4.87c2.62,2.06,5.22,4.12,7.83,6.19q3.16,2.52,6.32,5.07,23.16,18.64,45.55,38.18l4.45,3.9q8.84,7.77,17.55,15.68l4.76,4.34q2.13,1.93,4.24,3.9c1.63,1.5,3.26,3,4.88,4.52l.38.35q3.16,2.94,6.32,5.92l.17.15,6.47,6.14q3.26,3.1,6.49,6.23,6.92,6.66,13.76,13.44l4.77,4.74c.38.38.75.76,1.13,1.13q2.45,2.44,4.86,4.9,6.89,6.93,13.65,14,2.91,3,5.79,6l1.14,1.19c1.54,1.62,3.09,3.25,4.63,4.89l1.34,1.42q2.57,2.73,5.12,5.47,5.91,6.33,11.74,12.74c1.69,1.86,3.39,3.73,5.07,5.6s3.2,3.55,4.78,5.33q2,2.22,4,4.46l2.93,3.31c1.13,1.29,2.26,2.57,3.39,3.87q7.56,8.64,15,17.41c1.34,1.59,2.69,3.18,4,4.78.38.44.75.88,1.12,1.33q2.21,2.63,4.39,5.26,2.41,2.91,4.82,5.83,7.4,9,14.63,18.06,2.19,2.74,4.37,5.51t4.5,5.72l.39.5,4.44,5.71,4.62,6q2.29,3,4.58,6t4.56,6.05q2,2.71,4,5.43l.76,1,3.58,4.85q3,4.14,6.07,8.31l3.48,4.82q6.63,9.24,13.13,18.57c1.32,1.88,2.62,3.77,3.92,5.66q11.07,16.05,21.71,32.39,1.93,3,3.84,5.91c.06.09.12.18.17.27l3.4,5.3q8.58,13.44,16.88,27,1.68,2.76,3.35,5.53,1.59,2.61,3.15,5.25c1.25,2.08,2.5,4.17,3.73,6.27q1.55,2.6,3.07,5.21l2.1,3.6q3.84,6.59,7.59,13.2c.73,1.27,1.45,2.54,2.16,3.82,1.06,1.86,2.1,3.71,3.14,5.58s2.24,4,3.34,6c.85,1.51,1.68,3,2.5,4.53,1.23,2.22,2.44,4.45,3.65,6.69q4,7.29,7.83,14.64,2.08,3.93,4.13,7.88,2.47,4.77,4.93,9.56l2.16,4.25c.72,1.41,1.43,2.83,2.14,4.24q4.27,8.5,8.45,17.07c.83,1.71,1.66,3.41,2.48,5.12.28.57.56,1.15.83,1.73q1.43,2.94,2.83,5.9c.32.67.64,1.35,1,2q1.59,3.33,3.14,6.68.27.54.51,1.08,1.79,3.83,3.54,7.65,2,4.24,3.88,8.5t3.73,8.32q1.7,3.81,3.37,7.62l.87,2q1.44,3.3,2.87,6.61c.09.22.18.43.28.65q1.77,4.11,3.51,8.24t3.45,8.23a1.19,1.19,0,0,1,.08.2q1.76,4.22,3.49,8.45c1,2.49,2,5,3,7.48.31.76.61,1.52.91,2.28,1,2.4,1.92,4.81,2.87,7.22,1.06,2.66,2.1,5.34,3.14,8,.1.26.19.51.29.76q1.6,4.15,3.19,8.31l.06.15q1.59,4.2,3.17,8.43t3.18,8.6q1.58,4.31,3.13,8.63t3,8.41l.15.4q3,8.58,5.94,17.21,1.47,4.36,2.92,8.73t2.87,8.75c.87,2.66,1.72,5.33,2.57,8l.42,1.3c.77,2.43,1.54,4.87,2.29,7.31q2.61,8.32,5.1,16.68c.44,1.46.88,2.92,1.3,4.39.64,2.13,1.26,4.26,1.88,6.39,0,0,0,0,0,0q.9,3,1.76,6.11.73,2.52,1.44,5.05l.36,1.26c.63,2.21,1.24,4.42,1.85,6.64l.33,1.2q1.91,6.9,3.74,13.82l1.08,4.1,1.35,5.19c.25,1,.51,2,.76,3q.84,3.3,1.67,6.61c.1.37.19.73.28,1.09.65,2.62,1.3,5.23,1.94,7.85.44,1.79.87,3.57,1.3,5.36.38,1.56.75,3.13,1.12,4.7q1.23,5.16,2.42,10.34.73,3.21,1.46,6.44c.52,2.29,1,4.59,1.53,6.88s1,4.29,1.4,6.44c.08.34.15.67.22,1,.51,2.36,1,4.73,1.51,7.1q.81,3.84,1.59,7.69,1.07,5.19,2.08,10.4c.49,2.44,1,4.88,1.43,7.33q.89,4.59,1.73,9.2c.45,2.42.9,4.85,1.32,7.27.22,1.15.43,2.31.62,3.46q.71,3.87,1.36,7.74c.43,2.45.84,4.9,1.25,7.35.51,3.08,1,6.16,1.51,9.24.33,2,.64,4,1,6,.17,1,.33,2.05.48,3.08.25,1.6.5,3.2.74,4.8.19,1.29.39,2.59.57,3.88.25,1.64.49,3.28.73,4.92q.55,3.83,1.09,7.65.61,4.41,1.21,8.84.72,5.45,1.41,10.9c.34,2.65.66,5.3,1,7.95.35,2.85.68,5.7,1,8.56l.18,1.59q.35,3,.66,5.93c.17,1.53.34,3,.5,4.58q.86,7.93,1.61,15.89c.14,1.42.27,2.83.4,4.24q.29,3,.54,5.94l.12,1.3q.38,4.23.72,8.48c0,.14,0,.28,0,.42q.32,3.88.62,7.77c.06.75.11,1.5.17,2.25q.3,3.9.57,7.82c.26,3.68.51,7.35.74,11q.28,4.53.54,9.08.22,3.93.43,7.87c.08,1.55.16,3.1.23,4.65.12,2.41.23,4.81.33,7.22.11,2.22.2,4.43.28,6.65,0,1.21.1,2.41.14,3.62q.26,6.71.44,13.43.12,3.64.19,7.3c.06,2.12.1,4.24.14,6.36,0,.33,0,.67,0,1,.05,2.46.09,4.93.12,7.39,0,1.52,0,3,.05,4.55q.06,3.81.07,7.63Q3000,1495.45,3000,1500Z"/><path class="d" d="M3000,1500q0,4.55,0,9.09c0,3,0,6.05-.08,9.08,0,1.55,0,3.09-.07,4.64,0,2.08-.06,4.17-.1,6.25q-.07,4.34-.19,8.67c-.07,2.85-.14,5.68-.23,8.52q-.11,3.66-.24,7.3c0,.5,0,1-.06,1.51q-.08,2.37-.18,4.74-.14,3.9-.32,7.8c-.11,2.62-.24,5.25-.37,7.87-.06,1.38-.13,2.77-.21,4.15-.13,2.62-.28,5.23-.43,7.84q-.19,3.36-.4,6.7c-.07,1.18-.15,2.37-.22,3.55q-.24,3.68-.49,7.33c0,.36-.05.72-.08,1.08-.12,1.77-.25,3.54-.38,5.3s-.28,3.81-.43,5.71q-.3,4-.63,7.95c-.15,1.8-.3,3.61-.46,5.41l-.39,4.45q-1.19,13.33-2.61,26.61c-.22,2.12-.46,4.24-.7,6.36s-.44,4-.68,6c-.29,2.57-.6,5.14-.91,7.7s-.61,5-.93,7.57l-.57,4.47c-.22,1.73-.45,3.46-.68,5.18-.19,1.44-.38,2.88-.58,4.32s-.35,2.62-.54,3.93c-.26,2-.53,3.89-.82,5.84q-.51,3.68-1.06,7.35c-.28,2-.58,3.94-.88,5.91-.22,1.48-.45,3-.68,4.44-.13.89-.27,1.78-.41,2.67-.36,2.34-.74,4.68-1.11,7,0,.21-.07.41-.1.61q-.64,4-1.32,8c-.4,2.44-.82,4.88-1.24,7.32q-.71,4.13-1.44,8.24-2.49,14-5.24,27.89c-.56,2.87-1.14,5.73-1.72,8.59s-1.17,5.72-1.77,8.57q-.64,3.06-1.3,6.11-1.29,6.08-2.65,12.13-.6,2.68-1.21,5.37c-.23,1.06-.48,2.12-.72,3.18q-.78,3.39-1.57,6.76c-.07.32-.15.65-.23,1-.5,2.16-1,4.31-1.53,6.47-.35,1.47-.7,2.94-1.06,4.41l-.75,3.08q-.73,3-1.49,6c-.26,1.07-.53,2.13-.8,3.18-.36,1.43-.72,2.86-1.09,4.29q-.67,2.67-1.36,5.32c-.68,2.63-1.37,5.27-2.07,7.89-.61,2.32-1.22,4.63-1.85,6.94-.39,1.46-.79,2.92-1.19,4.38q-2,7.29-4.05,14.56c-.84,3-1.7,5.93-2.56,8.89q-2.39,8.21-4.86,16.38-1.23,4-2.48,8.09-.78,2.55-1.59,5.09c-.47,1.53-1,3.06-1.44,4.59q-1.92,6-3.88,12-.83,2.54-1.66,5.06t-1.74,5.22c-.17.53-.34,1-.52,1.57-.74,2.2-1.48,4.41-2.24,6.6q-2,5.83-4,11.64l-1.41,4-2.07,5.81c-.24.69-.49,1.37-.74,2.06q-1,2.7-2,5.4-1.09,3-2.22,6.06c-.8,2.17-1.6,4.34-2.42,6.51q-1.54,4.17-3.14,8.32-2.47,6.52-5,13-2.09,5.35-4.23,10.68-1.59,4-3.21,7.94c-.57,1.42-1.15,2.82-1.73,4.23q-1.14,2.79-2.3,5.56c-1.08,2.62-2.18,5.23-3.28,7.84-.26.63-.53,1.25-.8,1.88q-1.26,3-2.53,5.93-1.42,3.35-2.88,6.68c-.89,2-1.78,4.08-2.69,6.12s-1.86,4.23-2.81,6.34c-.76,1.72-1.53,3.45-2.31,5.17q-.93,2.08-1.88,4.15-1.39,3.09-2.81,6.17-1.87,4.08-3.78,8.15-1.68,3.62-3.39,7.22-8.43,17.8-17.32,35.35-1.62,3.22-3.27,6.44-7.83,15.28-16,30.37c-.66,1.22-1.32,2.44-2,3.66q-1.51,2.78-3,5.54c-.18.35-.37.7-.57,1q-2,3.71-4.1,7.38c-1.38,2.48-2.78,5-4.17,7.43l-.65,1.14q-1.55,2.73-3.11,5.45l-1.5,2.62q-1.32,2.28-2.65,4.56-1.1,1.91-2.22,3.81c-1.24,2.14-2.5,4.27-3.76,6.4q-2.29,3.9-4.63,7.78-4.68,7.82-9.46,15.58-2.34,3.8-4.7,7.57t-4.81,7.65q-5.28,8.37-10.69,16.66c-1.26,1.94-2.52,3.87-3.8,5.79-.21.33-.42.66-.65,1q-2.25,3.45-4.55,6.87-2.51,3.75-5,7.5c-1.56,2.32-3.14,4.63-4.71,6.94l-.92,1.33q-1.61,2.36-3.23,4.7l-2.13,3.08c-1.1,1.58-2.2,3.16-3.32,4.74q-8.28,11.84-16.8,23.51-2.65,3.65-5.33,7.27t-5.38,7.24l0,.05q-2.68,3.58-5.39,7.15-8.4,11.09-17,22-2.53,3.24-5.1,6.45-2.8,3.53-5.63,7t-5.67,7q-2.82,3.46-5.68,6.92l-.08.1q-2.09,2.53-4.2,5.06l-2.93,3.51q-9,10.74-18.17,21.29l-4.56,5.21q-8.34,9.51-16.85,18.87-97-61.2-189.67-132.77-4.2-3.26-8.39-6.52-3-2.29-5.89-4.61l-7.09-5.59q-3.54-2.8-7.07-5.62t-7-5.64l-7-5.66-7-5.68q-7-5.68-13.9-11.42l-6.91-5.74q-10.42-8.68-20.71-17.48l-6.45-5.51q-13.7-11.78-27.17-23.7-3.34-3-6.67-5.93l-6.64-5.95q-3.32-3-6.62-6l-6.13-5.56q-21.89-20-43.16-40.33l-5.57-5.34q-20-19.29-39.47-38.93c-1.85-1.86-3.7-3.73-5.53-5.6s-3.68-3.74-5.51-5.62-3.67-3.75-5.49-5.63q-5.84-6-11.59-12-5.1-5.32-10.16-10.66-3.26-3.45-6.49-6.89-2.84-3-5.64-6-4.65-5-9.26-10-2.66-2.87-5.3-5.76-15.86-17.31-31.31-34.87l-4.46-5.07q-27.51-31.43-53.77-63.63l-4.2-5.16q-3-3.66-5.92-7.33l0,0q-18.95-26.1-39.71-50.76l0,0,0,0q-3-4-6-8-6.76-9-13.42-18-3-4-5.93-8.05-3.13-4.27-6.25-8.56l-6.2-8.58q-3.09-4.29-6.16-8.6t-6.12-8.63q-3-4.32-6.07-8.64-3.58-5.13-7.14-10.26-4.37-6.32-8.69-12.66l-3-4.47-5-7.43-6.13-9.15-4.65-7q-3.37-5.08-6.71-10.19-2.82-4.31-5.62-8.63-6.06-9.37-12-18.8-2.54-4-5-8-2.4-3.81-4.78-7.63c-.44-.7-.87-1.4-1.31-2.09q-2.52-4.05-5-8.11-2.85-4.62-5.68-9.25-2.66-4.34-5.27-8.67h0q-2.71-4.49-5.4-9-18.87-31.5-36.71-63.49-2.55-4.56-5.07-9.14l-4.15-7.55q-23-42.08-44.31-84.93-2.31-4.67-4.61-9.35c-1.53-3.11-3-6.24-4.57-9.36q-1.86-3.83-3.71-7.67-2.67-5.55-5.32-11.13c-1.48-3.12-3-6.26-4.43-9.39s-2.94-6.28-4.4-9.43q-4.38-9.43-8.68-18.91-2.14-4.74-4.28-9.48-4.24-9.48-8.42-19-2.08-4.77-4.15-9.53t-4.11-9.54q-2-4.78-4.06-9.56t-4-9.57q-4-9.59-7.92-19.19-4.41-10.82-8.7-21.66c-1-2.42-1.9-4.83-2.85-7.24q-2.85-7.25-5.64-14.49t-5.54-14.53q-3.66-9.7-7.23-19.42t-7.07-19.47q-3.93-11-7.74-22c-.85-2.45-1.69-4.89-2.53-7.34q-2.48-7.19-4.9-14.4t-4.8-14.43l-.42-1.26q-1.5-4.58-3-9.17c-.09-.3-.19-.59-.29-.89l-2.88-9q-1.57-4.93-3.12-9.86c-1-3.29-2.06-6.57-3.09-9.86h0q-1.53-4.93-3-9.88l-2.61-8.61-.93-3.08q-2.68-9-5.32-18-1.45-5-2.87-9.93-2.85-9.93-5.61-19.88-1.38-5-2.74-10h0q-1.34-4.9-2.66-9.83l-.12-.43q-1.29-4.85-2.57-9.69-3-11.24-5.82-22.49l-1.89-7.51q-1-4.1-2-8.19c-.17-.7-.35-1.41-.52-2.12-.8-3.24-1.58-6.49-2.37-9.74q-2.42-10-4.74-20.08-1.17-5-2.31-10.06t-2.27-10.06q-1.12-5-2.22-10.08t-2.18-10.08c-.07-.31-.13-.62-.2-.92q-1-4.59-1.94-9.17-1.05-5.06-2.09-10.1t-2-10.11q-1-5.05-2-10.12t-2-10.12q-1-5.07-1.92-10.14-1.9-10.12-3.71-20.28c-.6-3.39-1.2-6.77-1.79-10.16q-1.77-10.15-3.45-20.33-.93-5.64-1.84-11.29-.72-4.53-1.43-9.07c-.53-3.4-1.06-6.79-1.57-10.19s-1-6.8-1.53-10.19q-.64-4.33-1.26-8.67-.93-6.4-1.82-12.82c-.34-2.5-.69-5-1-7.5q-.81-5.92-1.58-11.86-.65-4.92-1.26-9.83-.43-3.4-.84-6.79-.36-2.85-.7-5.7c-.38-3.09-.74-6.18-1.1-9.27s-.71-6.08-1-9.11q-1.07-9.43-2.06-18.87c-.26-2.49-.52-5-.77-7.46s-.51-5-.75-7.46-.49-5-.73-7.46a2410,2410,0,0,1,0-459.81C826,670.09,378.29,1421.2,378.29,2276.88q0,117,11,231.26-8.51-9.36-16.85-18.87l-4.56-5.21q-9.18-10.56-18.17-21.29l-2.93-3.51q-2.11-2.52-4.2-5.06l-.08-.1q-2.85-3.45-5.68-6.92t-5.67-7q-2.83-3.51-5.63-7-2.56-3.21-5.1-6.45-8.61-10.93-17-22-2.7-3.57-5.39-7.15l0-.05q-2.7-3.61-5.38-7.24t-5.33-7.27q-8.52-11.67-16.8-23.51c-1.12-1.58-2.22-3.16-3.32-4.74l-2.13-3.08q-1.62-2.34-3.23-4.7l-.92-1.33c-1.57-2.31-3.15-4.62-4.71-6.94q-2.53-3.75-5-7.5-2.29-3.42-4.55-6.87c-.23-.33-.44-.66-.65-1-1.28-1.92-2.54-3.85-3.8-5.79q-5.4-8.3-10.69-16.66-2.42-3.81-4.81-7.65t-4.7-7.57q-4.77-7.76-9.46-15.58-2.34-3.89-4.63-7.78c-1.26-2.13-2.52-4.26-3.76-6.4q-1.12-1.9-2.22-3.81-1.33-2.28-2.65-4.56l-1.5-2.62q-1.56-2.71-3.11-5.45l-.65-1.14c-1.39-2.47-2.79-5-4.17-7.43s-2.75-4.91-4.1-7.38c-.2-.34-.39-.69-.57-1q-1.53-2.76-3-5.54c-.67-1.22-1.33-2.44-2-3.66q-8.17-15.09-16-30.37-1.65-3.21-3.27-6.44-8.9-17.55-17.32-35.35-1.71-3.6-3.39-7.22-1.91-4.07-3.78-8.15-1.41-3.07-2.81-6.17-.94-2.07-1.88-4.15c-.78-1.72-1.55-3.45-2.31-5.17q-1.43-3.17-2.81-6.34c-.91-2-1.8-4.08-2.69-6.12q-1.45-3.33-2.88-6.68-1.27-3-2.53-5.93c-.27-.63-.54-1.25-.8-1.88-1.1-2.61-2.2-5.22-3.28-7.84q-1.16-2.78-2.3-5.56c-.58-1.41-1.16-2.81-1.73-4.23q-1.62-4-3.21-7.94-2.14-5.33-4.23-10.68-2.55-6.49-5-13-1.59-4.15-3.14-8.32c-.82-2.17-1.62-4.34-2.42-6.51s-1.49-4-2.22-6.06q-1-2.7-2-5.4c-.25-.69-.5-1.37-.74-2.06l-2.07-5.81-1.41-4q-2-5.8-4-11.64c-.76-2.19-1.5-4.4-2.24-6.6-.18-.52-.35-1-.52-1.57q-.89-2.61-1.74-5.22t-1.66-5.06q-2-6-3.88-12c-.48-1.53-1-3.06-1.44-4.59q-.81-2.53-1.59-5.09-1.24-4-2.48-8.09-2.47-8.17-4.86-16.38c-.86-3-1.72-5.92-2.56-8.89q-2.05-7.26-4-14.56c-.4-1.46-.8-2.92-1.19-4.38-.63-2.31-1.24-4.62-1.85-6.94-.7-2.62-1.39-5.26-2.07-7.89q-.69-2.65-1.36-5.32c-.37-1.43-.73-2.86-1.09-4.29-.27-1-.54-2.11-.8-3.18q-.75-3-1.49-6l-.75-3.08c-.36-1.47-.71-2.94-1.06-4.41-.52-2.16-1-4.31-1.53-6.47-.08-.32-.16-.65-.23-1q-.8-3.37-1.57-6.76c-.24-1.06-.49-2.12-.72-3.18q-.62-2.68-1.21-5.37-1.35-6-2.65-12.13-.66-3-1.3-6.11-.9-4.27-1.77-8.57c-.58-2.86-1.16-5.72-1.72-8.59q-2.76-13.89-5.24-27.89-.73-4.11-1.44-8.24c-.42-2.44-.84-4.88-1.24-7.32q-.67-4-1.32-8c0-.2-.07-.4-.1-.61-.37-2.33-.75-4.67-1.11-7-.14-.89-.28-1.78-.41-2.67-.23-1.48-.46-3-.68-4.44-.3-2-.6-3.94-.88-5.91q-.56-3.68-1.06-7.35c-.29-2-.56-3.89-.82-5.84q-.28-2-.54-3.93c-.2-1.44-.39-2.88-.58-4.32-.23-1.72-.46-3.45-.68-5.18l-.57-4.47q-.48-3.78-.93-7.57c-.31-2.56-.62-5.13-.91-7.7-.24-2-.46-4-.68-6s-.48-4.24-.7-6.36Q7.18,1648.28,6,1634.94l-.39-4.45c-.16-1.8-.31-3.61-.46-5.41q-.33-4-.63-7.95-.22-2.85-.43-5.71c-.13-1.76-.26-3.53-.38-5.3,0-.36-.05-.72-.08-1.08q-.25-3.66-.49-7.33c-.07-1.18-.15-2.37-.22-3.55q-.21-3.35-.4-6.7c-.15-2.61-.3-5.22-.43-7.84-.08-1.38-.15-2.77-.21-4.15-.13-2.62-.26-5.25-.37-7.87s-.23-5.2-.32-7.8q-.1-2.37-.18-4.74c0-.51,0-1-.06-1.51q-.13-3.65-.24-7.3c-.09-2.84-.16-5.67-.23-8.52s-.14-5.78-.19-8.67c0-2.08-.08-4.17-.1-6.25,0-1.55,0-3.09-.07-4.64,0-3-.07-6.05-.08-9.08S0,1503,0,1500s0-6.07,0-9.1q0-3.83.07-7.63c0-1.51,0-3,0-4.55,0-2.46.07-4.93.12-7.39,0-.33,0-.67,0-1,0-2.12.08-4.24.14-6.36q.08-3.66.19-7.3.18-6.72.44-13.43c0-1.21.09-2.41.14-3.62.08-2.22.17-4.43.28-6.65.1-2.41.21-4.81.33-7.22.07-1.55.15-3.1.23-4.65q.21-3.94.43-7.87.25-4.55.54-9.08c.23-3.68.48-7.35.74-11q.27-3.91.57-7.82c.06-.75.11-1.5.17-2.25q.3-3.88.62-7.77c0-.14,0-.28,0-.42q.34-4.24.72-8.48l.12-1.3q.25-3,.54-5.94c.13-1.41.26-2.82.4-4.24q.77-8,1.61-15.89c.16-1.53.33-3,.5-4.58q.32-3,.66-5.93l.18-1.59c.33-2.86.66-5.71,1-8.56.32-2.65.64-5.3,1-7.95q.69-5.45,1.41-10.9.6-4.43,1.21-8.84.54-3.83,1.09-7.65c.24-1.64.48-3.28.73-4.92.18-1.29.38-2.59.57-3.88.24-1.6.49-3.2.74-4.8.15-1,.31-2.05.48-3.08.31-2,.62-4,.95-6,.49-3.08,1-6.16,1.51-9.24.41-2.45.82-4.9,1.25-7.35s.89-5.16,1.36-7.74c.19-1.15.4-2.31.62-3.46.42-2.42.87-4.85,1.32-7.27q.84-4.61,1.73-9.2c.47-2.45.94-4.89,1.43-7.33q1-5.21,2.08-10.4.78-3.85,1.59-7.69c.49-2.37,1-4.74,1.51-7.1.07-.34.14-.67.22-1q.67-3.23,1.4-6.44c.5-2.29,1-4.59,1.53-6.88s1-4.3,1.47-6.44q1.17-5.17,2.41-10.34c.37-1.57.74-3.14,1.12-4.7.43-1.79.86-3.57,1.3-5.36.64-2.62,1.29-5.23,1.94-7.85.09-.36.18-.72.28-1.09q.83-3.32,1.67-6.61c.25-1,.51-2,.76-3l1.35-5.19,1.08-4.1q1.83-6.91,3.74-13.82l.33-1.2c.61-2.22,1.22-4.43,1.85-6.64l.36-1.26q.7-2.54,1.44-5.05.86-3.06,1.76-6.11s0,0,0,0c.62-2.13,1.24-4.26,1.88-6.39.42-1.47.86-2.93,1.3-4.39q2.49-8.36,5.1-16.68c.75-2.44,1.52-4.88,2.29-7.31l.42-1.3c.85-2.68,1.7-5.35,2.57-8q1.42-4.38,2.87-8.75t2.92-8.73q2.93-8.62,5.94-17.21l.15-.4q1.48-4.21,3-8.41T91,984.25q1.58-4.31,3.18-8.6t3.17-8.43l.06-.15q1.59-4.16,3.19-8.31c.1-.25.19-.5.29-.76,1-2.67,2.08-5.35,3.14-8,1-2.41,1.9-4.82,2.87-7.22.3-.76.6-1.52.91-2.28,1-2.5,2-5,3-7.48q1.74-4.23,3.49-8.45a1.19,1.19,0,0,1,.08-.2q1.71-4.12,3.45-8.23t3.51-8.24c.1-.22.19-.43.28-.65q1.42-3.32,2.87-6.61l.87-2q1.68-3.81,3.37-7.62,1.84-4.17,3.73-8.32t3.88-8.5q1.76-3.83,3.54-7.65.24-.54.51-1.08,1.55-3.35,3.14-6.68c.31-.67.63-1.35.95-2q1.41-3,2.83-5.9c.27-.58.55-1.16.83-1.73.82-1.71,1.65-3.41,2.48-5.12q4.17-8.57,8.45-17.07c.71-1.41,1.42-2.83,2.14-4.24l2.16-4.25q2.45-4.8,4.93-9.56,2.06-3.95,4.13-7.88,3.87-7.35,7.83-14.64c1.21-2.24,2.42-4.47,3.65-6.69.82-1.52,1.65-3,2.5-4.53q1.65-3,3.34-6c1-1.87,2.08-3.72,3.14-5.58.71-1.28,1.43-2.55,2.16-3.82q3.77-6.63,7.59-13.2l2.1-3.6q1.53-2.61,3.07-5.21c1.23-2.1,2.48-4.19,3.73-6.27q1.56-2.64,3.15-5.25,1.66-2.78,3.35-5.53,8.29-13.62,16.88-27l3.4-5.3c0-.09.11-.18.17-.27q1.91-3,3.84-5.91,10.63-16.33,21.71-32.39c1.3-1.89,2.6-3.78,3.92-5.66q6.5-9.33,13.13-18.57l3.48-4.82q3-4.17,6.07-8.31l3.58-4.85.76-1q2-2.71,4.05-5.43,2.26-3,4.56-6.05t4.58-6l4.62-6,4.44-5.71.39-.5q2.24-2.87,4.5-5.72t4.37-5.51q7.24-9.09,14.63-18.06,2.4-2.92,4.82-5.83,2.19-2.64,4.39-5.26c.37-.45.74-.89,1.12-1.33,1.34-1.6,2.69-3.19,4-4.78q7.44-8.77,15-17.41l3.39-3.87,2.93-3.31q2-2.24,4-4.46c1.58-1.78,3.18-3.56,4.78-5.33s3.38-3.74,5.07-5.6q5.83-6.4,11.74-12.74,2.55-2.75,5.12-5.47l1.34-1.42c1.54-1.64,3.09-3.27,4.63-4.89l1.14-1.19q2.88-3,5.79-6,6.76-7,13.65-14,2.42-2.46,4.86-4.9l1.13-1.13,4.77-4.74q6.84-6.76,13.76-13.44,3.22-3.14,6.49-6.23l6.47-6.14.17-.15q3.15-3,6.32-5.92l.38-.35c1.62-1.52,3.25-3,4.88-4.52q2.12-2,4.24-3.9l4.76-4.34Q501,381,509.86,373.2l4.45-3.9q22.4-19.53,45.55-38.18,3.15-2.55,6.32-5.07c2.61-2.07,5.21-4.13,7.83-6.19q3.11-2.44,6.23-4.87l4.89-3.78q2.72-2.1,5.45-4.18,15.72-12,31.78-23.61c1.78-1.29,3.55-2.57,5.34-3.84s3.53-2.53,5.31-3.79q4.2-3,8.42-5.93,5.1-3.57,10.25-7.1,3.55-2.44,7.12-4.86l4.63-3.13q7.77-5.24,15.63-10.37,8.43-5.55,17-11l4.35-2.76q2.43-1.55,4.87-3.06l4.46-2.78q16.74-10.41,33.79-20.38l4.94-2.88.93-.54,6.1-3.51q7-4,14-7.91,3.52-2,7.08-3.94,2.75-1.51,5.52-3l5.64-3.07,2.8-1.51,4.24-2.27q7.14-3.82,14.33-7.55,4-2.07,8-4.11l.53-.27,6.43-3.28,6.08-3.05,6.14-3.05c2.28-1.13,4.57-2.26,6.86-3.37q8.34-4.06,16.74-8l6.17-2.9.41-.19q4-1.87,8-3.72c2.37-1.09,4.75-2.18,7.13-3.25q8.52-3.87,17.09-7.62c1.91-.84,3.81-1.67,5.72-2.49l5.07-2.19,5.81-2.47q4.69-2,9.39-3.94c2.18-.91,4.38-1.82,6.57-2.71q6.23-2.57,12.49-5.06c2.1-.85,4.21-1.68,6.32-2.51s4-1.59,6-2.37l5.47-2.11,2.71-1,4.69-1.79,2.67-1,5.41-2q10.89-4,21.85-7.94,3.58-1.27,7.18-2.52l6.13-2.12,2.62-.9,5.86-2q6.95-2.34,13.92-4.62l8.87-2.86q3.31-1.07,6.65-2.1c2.07-.66,4.14-1.3,6.22-1.94l2.35-.73q10.53-3.24,21.13-6.32,7.46-2.18,14.94-4.27l6.44-1.79,6.58-1.79c1.56-.43,3.13-.85,4.7-1.26l4.82-1.28,6.37-1.66,4.27-1.1q6.49-1.65,13-3.25c1.42-.36,2.83-.7,4.25-1q13.59-3.3,27.27-6.35l5.75-1.27,8.44-1.82,5.08-1.07,1.79-.37c2.45-.51,4.91-1,7.37-1.51l6-1.21c3.06-.61,6.12-1.2,9.19-1.79s6.13-1.17,9.2-1.73c2.75-.51,5.51-1,8.26-1.51l1-.17q4.62-.83,9.25-1.62l7.52-1.28,2.43-.4,7.41-1.21q5.64-.9,11.29-1.76c2.84-.43,5.67-.86,8.51-1.27h.06c2.75-.4,5.49-.8,8.24-1.18l1.76-.25q3.94-.55,7.9-1.08l2.17-.29,7.71-1,.3,0c3.11-.39,6.22-.78,9.33-1.15q4.07-.5,8.14-1l2.53-.29c2.49-.29,5-.56,7.5-.84l10.41-1.09,7.89-.77,4.2-.4c2.18-.21,4.37-.4,6.56-.6q4.82-.43,9.64-.82c2.69-.23,5.38-.44,8.07-.65q5.42-.42,10.83-.79l7.45-.5.24,0L1405,3q3.8-.24,7.59-.45l1.19-.07q4.15-.24,8.31-.45l1.42-.07c2.88-.15,5.77-.29,8.65-.41q9.19-.42,18.42-.71l3.64-.11c2-.07,4-.12,6-.17l2.64-.07c2.68-.07,5.36-.12,8-.17q4.38-.09,8.76-.15,5.68-.08,11.38-.1,4.45,0,8.92,0t8.92,0q5.7,0,11.38.1,4.38.06,8.76.15c2.68,0,5.36.1,8,.17l2.64.07c2,0,4,.1,6,.17l3.64.11q9.22.3,18.42.71c2.88.12,5.77.26,8.65.41l1.42.07q4.15.21,8.31.45l1.19.07q3.79.21,7.59.45l3.19.2.24,0,7.45.5q5.41.37,10.83.79c2.69.21,5.38.42,8.07.65q4.83.39,9.64.82c2.19.2,4.38.39,6.56.6l4.2.4,7.89.77,10.41,1.09c2.51.28,5,.55,7.5.84l2.53.29q4.08.46,8.14,1c3.11.37,6.22.76,9.33,1.15l.3,0,7.71,1,2.17.29q4,.53,7.9,1.08l1.76.25c2.75.38,5.49.78,8.24,1.18h.06c2.84.41,5.67.84,8.51,1.27q5.65.86,11.29,1.76l7.41,1.21,2.43.4,7.52,1.28q4.63.8,9.25,1.62l1,.17c2.75.49,5.51,1,8.26,1.51q4.61.84,9.2,1.73c3.07.59,6.13,1.18,9.19,1.79l6,1.21c2.46.49,4.92,1,7.37,1.51l1.79.37,5.08,1.07,8.44,1.82,5.75,1.27q13.7,3,27.27,6.35c1.42.34,2.83.68,4.25,1q6.51,1.59,13,3.25l4.27,1.1,6.37,1.66,4.82,1.28c1.57.41,3.14.83,4.7,1.26l6.58,1.79,6.44,1.79q7.48,2.1,14.94,4.27,10.6,3.09,21.13,6.32l2.35.73c2.08.64,4.15,1.28,6.22,1.94s4.44,1.39,6.65,2.1l8.87,2.86q7,2.28,13.92,4.62l5.86,2,2.62.9,6.13,2.12q3.6,1.25,7.18,2.52,10.95,3.89,21.85,7.94l5.41,2,2.67,1,4.69,1.79,2.71,1,5.47,2.11c2,.78,4,1.57,6,2.37s4.22,1.66,6.32,2.51q6.26,2.49,12.49,5.06c2.19.89,4.39,1.8,6.57,2.71q4.7,2,9.39,3.94l5.81,2.47,5.07,2.19c1.91.82,3.81,1.65,5.72,2.49q8.57,3.75,17.09,7.62c2.38,1.07,4.76,2.16,7.13,3.25q4,1.85,8,3.72l.41.19,6.17,2.9q8.4,4,16.74,8c2.29,1.11,4.58,2.24,6.86,3.37l6.14,3.05,6.08,3.05,6.43,3.28.53.27q4,2,8,4.11,7.18,3.73,14.33,7.55l4.24,2.27,2.8,1.51,5.64,3.07q2.77,1.5,5.52,3,3.55,2,7.08,3.94,7,3.92,14,7.91l6.1,3.51.93.54,4.94,2.88q17,10,33.79,20.38l4.46,2.78q2.45,1.51,4.87,3.06l4.35,2.76q8.52,5.42,17,11,7.85,5.13,15.62,10.37l4.63,3.13q3.57,2.42,7.12,4.86,5.14,3.53,10.25,7.1,4.23,3,8.42,5.93,2.67,1.89,5.31,3.79c1.79,1.27,3.56,2.55,5.34,3.84Q2393.69,295,2409.42,307q2.73,2.09,5.45,4.18l4.89,3.78q3.12,2.43,6.23,4.87c2.62,2.06,5.22,4.12,7.83,6.19q3.16,2.52,6.32,5.07,23.16,18.64,45.55,38.18l4.45,3.9q8.84,7.77,17.55,15.68l4.76,4.34q2.13,1.93,4.24,3.9c1.63,1.5,3.26,3,4.88,4.52l.38.35q3.16,2.94,6.32,5.92l.17.15,6.47,6.14q3.26,3.1,6.49,6.23,6.92,6.66,13.76,13.44l4.77,4.74c.38.38.75.76,1.13,1.13q2.45,2.44,4.86,4.9,6.89,6.93,13.65,14,2.91,3,5.79,6l1.14,1.19c1.54,1.62,3.09,3.25,4.63,4.89l1.34,1.42q2.57,2.73,5.12,5.47,5.91,6.33,11.74,12.74c1.69,1.86,3.39,3.73,5.07,5.6s3.2,3.55,4.78,5.33q2,2.22,4,4.46l2.93,3.31c1.13,1.29,2.26,2.57,3.39,3.87q7.56,8.64,15,17.41c1.34,1.59,2.69,3.18,4,4.78.38.44.75.88,1.12,1.33q2.21,2.63,4.39,5.26,2.41,2.91,4.82,5.83,7.4,9,14.63,18.06,2.19,2.74,4.37,5.51t4.5,5.72l.39.5,4.44,5.71,4.62,6q2.29,3,4.58,6t4.56,6.05q2,2.71,4,5.43l.76,1,3.58,4.85q3,4.14,6.07,8.31l3.48,4.82q6.63,9.24,13.13,18.57c1.32,1.88,2.62,3.77,3.92,5.66q11.07,16.05,21.71,32.39,1.93,3,3.84,5.91c.06.09.12.18.17.27l3.4,5.3q8.58,13.44,16.88,27,1.68,2.76,3.35,5.53,1.59,2.61,3.15,5.25c1.25,2.08,2.5,4.17,3.73,6.27q1.55,2.6,3.07,5.21l2.1,3.6q3.83,6.57,7.59,13.2c.73,1.27,1.45,2.54,2.16,3.82,1.06,1.86,2.1,3.71,3.14,5.58s2.24,4,3.34,6c.85,1.51,1.68,3,2.5,4.53,1.23,2.22,2.44,4.45,3.65,6.69q4,7.29,7.83,14.64,2.08,3.93,4.13,7.88,2.47,4.77,4.93,9.56l2.16,4.25c.72,1.41,1.43,2.83,2.14,4.24q4.27,8.5,8.45,17.07c.83,1.71,1.66,3.41,2.48,5.12.28.57.56,1.15.83,1.73q1.43,2.94,2.83,5.9c.32.67.64,1.35,1,2q1.59,3.33,3.14,6.68.27.54.51,1.08,1.79,3.83,3.54,7.65,2,4.24,3.88,8.5t3.73,8.32q1.7,3.81,3.37,7.62l.87,2q1.44,3.3,2.87,6.61c.09.22.18.43.28.65q1.77,4.11,3.51,8.24t3.45,8.23a1.19,1.19,0,0,1,.08.2q1.76,4.22,3.49,8.45c1,2.49,2,5,3,7.48.31.76.61,1.52.91,2.28,1,2.4,1.92,4.81,2.87,7.22,1.06,2.66,2.1,5.34,3.14,8,.1.26.19.51.29.76q1.6,4.15,3.19,8.31l.06.15q1.59,4.2,3.17,8.43t3.18,8.6q1.58,4.31,3.13,8.63t3,8.41l.15.4q3,8.59,5.94,17.21,1.47,4.36,2.92,8.73t2.87,8.75c.87,2.66,1.72,5.33,2.57,8l.42,1.3c.77,2.43,1.54,4.87,2.29,7.31q2.61,8.32,5.1,16.68c.44,1.46.88,2.92,1.3,4.39.64,2.13,1.26,4.26,1.88,6.39,0,0,0,0,0,0q.9,3,1.76,6.11.73,2.52,1.44,5.05l.36,1.26c.63,2.21,1.24,4.42,1.85,6.64l.33,1.2q1.91,6.9,3.74,13.82l1.08,4.1,1.35,5.19c.25,1,.51,2,.76,3q.84,3.3,1.67,6.61c.1.37.19.73.28,1.09.65,2.62,1.3,5.23,1.94,7.85.44,1.79.87,3.57,1.3,5.36.38,1.56.75,3.13,1.12,4.7q1.23,5.16,2.42,10.34.73,3.21,1.46,6.44c.52,2.29,1,4.59,1.53,6.88s1,4.29,1.4,6.44c.08.34.15.67.22,1,.51,2.36,1,4.73,1.51,7.1q.81,3.84,1.59,7.69,1.07,5.19,2.08,10.4c.49,2.44,1,4.88,1.43,7.33q.89,4.59,1.73,9.2c.45,2.42.9,4.85,1.32,7.27.22,1.15.43,2.31.62,3.46q.71,3.87,1.36,7.74c.43,2.45.84,4.9,1.25,7.35.51,3.08,1,6.16,1.51,9.24.33,2,.64,4,1,6,.17,1,.33,2.05.48,3.08.25,1.6.5,3.2.74,4.8.19,1.29.39,2.59.57,3.88.25,1.64.49,3.28.73,4.92q.55,3.83,1.09,7.65.61,4.41,1.21,8.84.72,5.45,1.41,10.9c.34,2.65.66,5.3,1,7.95.35,2.85.68,5.7,1,8.56l.18,1.59q.35,3,.66,5.93c.17,1.53.34,3,.5,4.58q.86,7.93,1.61,15.89c.14,1.42.27,2.83.4,4.24q.29,3,.54,5.94l.12,1.3q.38,4.23.72,8.48c0,.14,0,.28,0,.42q.32,3.88.62,7.77c.06.75.11,1.5.17,2.25q.3,3.9.57,7.82c.26,3.68.51,7.35.74,11q.28,4.53.54,9.08.22,3.93.43,7.87c.08,1.55.16,3.1.23,4.65.12,2.41.23,4.81.33,7.22.11,2.22.2,4.43.28,6.65,0,1.21.1,2.41.14,3.62q.26,6.71.44,13.43.12,3.64.19,7.3c.06,2.12.1,4.24.14,6.36,0,.33,0,.67,0,1,.05,2.46.09,4.93.12,7.39,0,1.52,0,3,.05,4.55q.06,3.81.07,7.63Q3000,1495.45,3000,1500Z"/><path class="a" d="M1568.78,1090.27q-3-11.24-5.82-22.49Q1565.82,1079,1568.78,1090.27Z"/><path class="a" d="M1590.67,1168q-2.7-9-5.32-18Q1588,1159,1590.67,1168Z"/><path class="a" d="M1637.08,1307.19q-3.58-9.72-7.07-19.47Q1633.51,1297.47,1637.08,1307.19Z"/><path class="a" d="M1675,1403.72q-4-9.59-7.92-19.19Q1671,1394.13,1675,1403.72Z"/><path class="a" d="M1699.72,1460.92q-4.26-9.48-8.42-19Q1695.47,1451.43,1699.72,1460.92Z"/><path class="a" d="M2017.48,1979.91q-20.24-25.15-39.71-50.76Q1998.52,1953.79,2017.48,1979.91Z"/><path class="e" d="M390,2368.32q-1.72-45.75-1.73-91.44A2392.69,2392.69,0,0,1,1488.18,264.44a2425.49,2425.49,0,0,0,1.87,441.38q.36,3.76.73,7.51t.75,7.5c.23,2.23.47,4.5.7,6.78l.07.68c.64,6.06,1.32,12.26,2.07,19q.53,4.57,1.06,9.17c.36,3.09.72,6.2,1.1,9.31.23,1.9.47,3.82.71,5.74.26,2.21.55,4.5.84,6.8.41,3.26.83,6.56,1.26,9.86.53,4,1.05,8,1.59,11.91.23,1.71.47,3.46.71,5.2l.31,2.3c.61,4.33,1.21,8.62,1.83,12.9.41,2.89.84,5.8,1.27,8.71q.75,5.1,1.53,10.23c.5,3.3,1,6.62,1.54,9.94l0,.28q.67,4.32,1.36,8.62l.07.48c.62,3.81,1.23,7.58,1.85,11.35,1.12,6.74,2.28,13.61,3.47,20.42q.72,4.17,1.47,8.34l.32,1.84c1.42,7.89,2.6,14.36,3.73,20.39q.94,5.07,1.93,10.18l.34,1.76q.81,4.2,1.63,8.39,1,5.08,2,10.18c.67,3.36,1.36,6.75,2.05,10.14s1.4,6.75,2.1,10.12q.93,4.47,1.88,8.91l.41,1.88c.68,3.17,1.36,6.33,2,9.5.73,3.35,1.48,6.73,2.23,10.11l.2.9c.69,3.07,1.38,6.15,2.08,9.22q1.14,5,2.32,10.09c1.58,6.83,3.18,13.62,4.76,20.15l.68,2.81q.84,3.5,1.7,7l.51,2.08q1,4.14,2,8.25l1.89,7.53c1.94,7.66,3.91,15.26,5.85,22.61.78,3,1.57,5.94,2.37,8.92l.21.78c0,.19.09.36.14.53.76,2.83,1.53,5.67,2.3,8.5l.36,1.31q1.37,5,2.74,10c1.78,6.42,3.68,13.13,5.64,20q1.43,5,2.88,10c1.59,5.49,3.34,11.42,5.34,18.08l3.55,11.72c.87,2.85,1.74,5.67,2.61,8.49v0l1.4,4.47q1.06,3.45,2.15,6.88,1.54,4.93,3.13,9.89l2.89,9,.23.68.07.22q1.49,4.61,3,9.21l.43,1.3q2.39,7.24,4.81,14.46t4.93,14.47c.84,2.44,1.68,4.9,2.53,7.36,2.65,7.62,5.26,15,7.78,22.06,2.61,7.29,4.93,13.68,7.1,19.56,2.32,6.33,4.76,12.89,7.25,19.49q2.76,7.3,5.56,14.59t5.67,14.56l1,2.64c.61,1.54,1.21,3.08,1.82,4.63,2.89,7.29,5.83,14.61,8.74,21.75s5.5,13.43,8,19.28q2,4.79,4,9.6t4.07,9.58q2.06,4.82,4.14,9.6c1.13,2.64,2.3,5.3,3.46,8l.7,1.58c2.77,6.35,5.62,12.78,8.46,19.1q2,4.49,4,9l.25.54c2.6,5.75,5.45,12,8.72,19,1.47,3.17,2.93,6.32,4.43,9.48s3,6.28,4.43,9.42c1.79,3.74,3.56,7.46,5.35,11.18,1.23,2.57,2.48,5.14,3.73,7.7l.94,1.93q1.82,3.75,3.65,7.48c1.53,3.11,3.07,6.25,4.62,9.37,14.23,28.67,29.2,57.36,44.5,85.29,1.38,2.53,2.77,5.05,4.16,7.58q2.53,4.59,5.1,9.19c11.88,21.31,24.29,42.76,36.86,63.75,1.8,3,3.61,6,5.43,9l2.92,4.82h0q1.18,1.95,2.38,3.9c1.88,3.08,3.79,6.19,5.7,9.28,1.66,2.7,3.35,5.43,5,8.14l.06.1c.25.38.49.77.73,1.16l.55.88c1.53,2.48,3.13,5,4.72,7.54l.06.09c1.69,2.68,3.37,5.35,5.07,8,3.92,6.17,8,12.52,12.09,18.87l.32.49c1.78,2.74,3.55,5.47,5.34,8.19q3.36,5.13,6.74,10.24l4.65,7,6.16,9.19,2.78,4.11A907.77,907.77,0,0,0,1289,1598.39C835,1598.39,457.49,1932.83,390,2368.32Z"/><path d="M1476.53,283.91a2436.79,2436.79,0,0,0,3.56,422.88c.24,2.52.49,5,.74,7.54s.49,5,.76,7.52c.23,2.28.46,4.55.7,6.83l.07.66c.63,6,1.31,12.2,2.07,19,.35,3.07.7,6.15,1.06,9.19s.73,6.27,1.11,9.36c.24,1.92.47,3.84.71,5.75.27,2.29.56,4.58.85,6.83q.61,5,1.27,9.94.78,6,1.59,11.92c.22,1.69.45,3.37.68,5.06l.34,2.48V809c.61,4.29,1.21,8.58,1.83,12.86.42,2.93.84,5.86,1.27,8.77q.76,5.11,1.54,10.25c.48,3.21,1,6.4,1.48,9.6l.11.68q.71,4.57,1.44,9.14v0q.91,5.69,1.85,11.36c1.13,6.87,2.3,13.77,3.48,20.5.51,3,1,5.92,1.56,8.89l.24,1.36c1.42,7.94,2.61,14.44,3.74,20.42q1,5.13,1.94,10.27l.27,1.4c.57,2.93,1.13,5.85,1.7,8.77q1,5.12,2,10.24h0q1,5.07,2.06,10.17c.69,3.38,1.4,6.76,2.11,10.19.64,3.06,1.29,6.14,2,9.22l0,.19,0,.13,0,.15.12.55q1.08,5.07,2.19,10.12h0q1.1,5.07,2.23,10.15l.21.92q1,4.59,2.07,9.18,1.15,5.1,2.33,10.16c1.6,6.89,3.21,13.71,4.8,20.29l.72,3q.82,3.4,1.66,6.8l.3,1.24.22.88c.67,2.75,1.36,5.5,2.05,8.29.63,2.52,1.26,5,1.9,7.55,1.93,7.61,3.91,15.25,5.87,22.67q1.27,4.88,2.59,9.75c0,.21.11.42.16.61.65,2.39,1.29,4.78,1.94,7.17v0l.71,2.6c.92,3.34,1.83,6.66,2.76,10,1.79,6.48,3.7,13.22,5.66,20.06q1.44,5,2.9,10h0c1.61,5.57,3.36,11.5,5.36,18.16l.47,1.57.47,1.55,2.61,8.61v0c.72,2.36,1.44,4.7,2.16,7v.05l.91,2.92.89,2.83q1.1,3.51,2.2,7,1.56,5,3.16,10v0l1.44,4.47,1.44,4.48,0,.1,0,.09.07.22.06.19,0,.11.06.21c1,3.08,2,6.17,3,9.2.16.48.31,1,.47,1.4,1.48,4.52,3.06,9.26,4.82,14.48s3.41,10.1,4.93,14.51l2.55,7.4c2.62,7.55,5.25,15,7.81,22.17s4.94,13.69,7.13,19.62c2.34,6.38,4.8,13,7.29,19.58,1.63,4.33,3.4,9,5.58,14.64,1.73,4.5,3.59,9.29,5.7,14.65l1.08,2.75q.9,2.26,1.78,4.52c2.87,7.26,5.83,14.61,8.78,21.84s5.52,13.47,8,19.35q2,4.83,4.06,9.66l4.09,9.63q2.05,4.82,4.15,9.63,1.77,4.1,3.56,8.18l.61,1.41c2.78,6.34,5.64,12.8,8.51,19.19q2.13,4.76,4.3,9.53c2.59,5.72,5.46,12,8.75,19.07,1.32,2.85,2.89,6.21,4.45,9.52s3,6.32,4.47,9.48q2.67,5.63,5.35,11.2,1.88,3.88,3.76,7.77l.9,1.85c1.23,2.53,2.46,5.06,3.69,7.56q2.31,4.71,4.66,9.43c14.28,28.78,29.31,57.59,44.68,85.65l4.17,7.59c1.86,3.36,3.53,6.39,5.12,9.23,12,21.42,24.4,43,37,64q1.28,2.14,2.57,4.29h0l1.37,2.26,1.51,2.51,5.84,9.64h0l5.16,8.4c1.68,2.73,3.38,5.48,5.08,8.21l.06.09.06.09c.23.38.47.75.71,1.13l.47.76c1.63,2.63,3.26,5.23,4.84,7.73,1.7,2.7,3.39,5.38,5.1,8.07l2,3.08A917.76,917.76,0,0,0,1289,1588.39c-427.91,0-788.51,293.76-890.75,690.18v-1.69a2382.68,2382.68,0,0,1,1078.24-1993M1500,245.06C826,670.09,378.29,1421.2,378.29,2276.88q0,117,11,231.26c0-496.92,402.83-899.75,899.75-899.75,276.37,0,523.63,124.6,688.68,320.69q-3-4-6-8-6.76-9-13.42-18-3-4-5.93-8.05-3.13-4.27-6.25-8.56l-6.2-8.58q-3.09-4.29-6.16-8.6t-6.12-8.63q-3-4.32-6.07-8.64-3.58-5.13-7.14-10.26-4.37-6.32-8.69-12.66l-3-4.47-5-7.43-6.13-9.15-4.65-7q-3.37-5.08-6.71-10.19-2.82-4.31-5.62-8.63-6.06-9.37-12-18.8-2.54-4-5-8-2.4-3.81-4.78-7.63c-.44-.7-.87-1.4-1.31-2.09q-2.52-4.05-5-8.11-2.85-4.62-5.68-9.25-2.66-4.34-5.27-8.67h0q-2.71-4.49-5.4-9-18.87-31.5-36.71-63.49-2.55-4.56-5.07-9.14l-4.15-7.55q-23-42.08-44.31-84.93-2.31-4.67-4.61-9.35c-1.53-3.11-3-6.24-4.57-9.36q-1.86-3.83-3.71-7.67-2.67-5.55-5.32-11.13c-1.48-3.12-3-6.26-4.43-9.39s-2.94-6.28-4.4-9.43q-4.38-9.43-8.68-18.91-2.14-4.74-4.28-9.48-4.26-9.48-8.42-19-2.08-4.77-4.15-9.53t-4.11-9.54q-2-4.78-4.06-9.56t-4-9.57q-4-9.59-7.92-19.19-4.41-10.82-8.7-21.66c-1-2.42-1.9-4.83-2.85-7.24q-2.85-7.25-5.64-14.49t-5.54-14.53q-3.66-9.7-7.23-19.42t-7.07-19.47q-3.93-11-7.74-22c-.85-2.45-1.69-4.89-2.53-7.34q-2.48-7.19-4.9-14.4t-4.8-14.43l-.42-1.26q-1.5-4.58-3-9.17c-.09-.3-.19-.59-.29-.89l-2.88-9q-1.57-4.93-3.12-9.86c-1-3.29-2.06-6.57-3.09-9.86h0q-1.53-4.93-3-9.88l-2.61-8.61-.93-3.08q-2.7-9-5.32-18-1.45-5-2.87-9.93-2.85-9.93-5.61-19.88-1.38-5-2.74-10h0q-1.34-4.9-2.66-9.83l-.12-.43q-1.29-4.85-2.57-9.69-3-11.24-5.82-22.49l-1.89-7.51q-1-4.1-2-8.19c-.17-.7-.35-1.41-.52-2.12-.8-3.24-1.58-6.49-2.37-9.74q-2.42-10-4.74-20.08-1.17-5-2.31-10.06t-2.27-10.06q-1.12-5-2.22-10.08t-2.18-10.08c-.07-.31-.13-.62-.2-.92q-1-4.59-1.94-9.17-1.05-5.06-2.09-10.1t-2-10.11q-1-5.05-2-10.12t-2-10.12q-1-5.07-1.92-10.14-1.9-10.12-3.71-20.28c-.6-3.39-1.2-6.77-1.79-10.16q-1.77-10.15-3.45-20.33-.93-5.64-1.84-11.29-.72-4.53-1.43-9.07c-.53-3.4-1.06-6.79-1.57-10.19s-1-6.8-1.53-10.19q-.64-4.33-1.26-8.67-.93-6.4-1.82-12.82c-.34-2.5-.69-5-1-7.5q-.81-5.92-1.58-11.86-.65-4.92-1.26-9.83-.43-3.4-.84-6.79-.36-2.85-.7-5.7c-.38-3.09-.74-6.18-1.1-9.27s-.71-6.08-1-9.11q-1.07-9.43-2.06-18.87c-.26-2.49-.52-5-.77-7.46s-.51-5-.75-7.46-.49-5-.73-7.46a2410,2410,0,0,1,0-459.81Z"/><path class="c" d="M1949,2914.87a284.49,284.49,0,0,1,93.38-288.13C2102.6,2699.56,2190.46,2741,2285.9,2741h0q15.26,0,30.34-1.45-3.75,2.47-7.55,4.94c-1.87,1.23-3.69,2.4-5.51,3.57-9.53,6.16-19,12.14-28.3,17.8-2.17,1.34-4.27,2.62-6.37,3.89-2.29,1.4-4.6,2.79-6.91,4.17-1.91,1.15-3.79,2.28-5.68,3.38l-.17.1q-2.61,1.56-5.23,3.09l-6.73,3.94q-3.9,2.25-7.79,4.48l-1.6.92.11-.06-5.62,3.19-3.63,2-.87.49c-2.47,1.39-4.93,2.75-7.38,4.11l-4.08,2.24-.21.11c-1.21.68-2.43,1.34-3.64,2-2.34,1.28-4.63,2.52-6.93,3.75l-.34.18q-2.76,1.5-5.54,3l-.17.09c-1.38.75-2.75,1.47-4.14,2.2-18.85,10-38.19,19.64-57.55,28.81l-4,1.86-.15.07c-1.81.86-3.62,1.7-5.43,2.54l-.24.11c-2.33,1.09-4.64,2.15-6.94,3.2l-.1,0c-1.66.77-3.33,1.53-5,2.28l-.12.05c-1.17.55-2.35,1.08-3.52,1.6l-.15.06-4.71,2.12c-3,1.36-6,2.69-9.07,4l-1.83.8-3.58,1.55-.55.25-.26.11-4.82,2.08c-5,2.12-10.16,4.32-15.47,6.52l-5.64,2.34c-1.12.44-2.3.93-3.48,1.41l-1.24.51-4.75,1.92-.21.08q-2.67,1.08-5.34,2.13l-.31.13-.26.09-.19.08q-2.8,1.13-5.6,2.21c-3.92,1.55-7.87,3.08-12.18,4.72l-.44.16-5.47,2.08c-6.48,2.45-12.91,4.82-19.14,7.07l-4.59,1.65-2.43.87-4.46,1.57-1.79.63-4.28,1.49-6.18,2.13q-6.15,2.11-12.31,4.15c-4.83,1.61-9.27,3.06-13.58,4.44Z"/><path d="M2040.92,2649.34A334.46,334.46,0,0,0,2260.34,2756l-.07,0-.06,0c-2.26,1.38-4.53,2.75-6.84,4.13-1.91,1.14-3.71,2.23-5.49,3.26l-.16.09-.17.1c-1.86,1.11-3.52,2.1-5.08,3l-.08,0-.08,0c-2,1.19-4.15,2.44-6.55,3.83s-4.94,2.86-7.67,4.42l-.11.06-.1.06-.54.31-.83.48L2221,2779l-.07,0-.07,0-3.5,2-.78.44,0,0,0,0c-2.41,1.36-4.84,2.71-7.27,4.05-1.31.72-2.62,1.45-3.94,2.16l-.22.12-.21.12c-1.06.6-2.21,1.22-3.43,1.88l0,0,0,0-6.6,3.57-.15.07-.4.22c-1.6.86-3.49,1.88-5.39,2.88l-.17.09-.17.09-3.94,2.1-.05,0-.05,0c-18.6,9.83-37.74,19.41-56.89,28.48l-3.81,1.78-.16.08-.16.07c-1.8.86-3.62,1.7-5.43,2.55l-.08,0-.05,0,0,0c-2.39,1.11-4.59,2.13-6.72,3.1l-.11,0-.1,0c-1.62.75-3.23,1.48-4.85,2.21l-.11.05-.12.05c-1.11.51-2.21,1-3.32,1.51l-.17.07-.16.07c-1.52.7-3,1.37-4.55,2.05h0l0,0c-2.89,1.3-5.87,2.61-8.84,3.91l-1.9.83-3.48,1.52-.37.15-.22.1-.07,0-.23.1c-1.5.66-3,1.3-4.49,1.94l-.23.1c-4.86,2.09-10,4.25-15.3,6.44l-.09,0-.09,0c-1.68.71-3.42,1.43-5.31,2.2l-3.58,1.46-1.37.55-4.51,1.83-5.47,2.18-.21.09-.11,0-.48.2c-1.82.72-3.64,1.45-5.46,2.15l-.09,0-.1,0c-3.74,1.48-7.63,3-11.94,4.63l-5.8,2.2h0l0,0c-6.37,2.4-12.72,4.75-18.86,7l-4.59,1.65-.06,0-.07,0c-.71.26-1.43.52-2.16.77l-.06,0-.06,0-1.47.52-2.88,1-1.72.6-4.29,1.5h0l0,0-6.08,2.09c-4,1.38-8.1,2.75-12.17,4.11l-2.36.78a268.42,268.42,0,0,1,80.09-244.88m4.13-45.09c-105.11,78.37-144.23,212.4-107,330.76l3.88-1.19q3-.93,6.09-1.89l.64-.2q5.43-1.7,10.85-3.44,6.89-2.2,13.74-4.49,6.24-2.07,12.45-4.2l6.21-2.14,6.19-2.16,4.41-1.56,2.57-.92,4.59-1.65q9.7-3.49,19.34-7.14l6-2.27q6.15-2.34,12.27-4.75c1.91-.74,3.82-1.5,5.73-2.26l.74-.29,5.61-2.24,6-2.45,3.51-1.43q2.86-1.17,5.72-2.37,7.86-3.25,15.67-6.6l4.89-2.11.73-.32c1.84-.79,3.68-1.6,5.52-2.4q4.59-2,9.15-4.05c1.62-.72,3.23-1.44,4.85-2.18q1.86-.82,3.72-1.68,2.57-1.15,5.13-2.34,3.54-1.61,7.07-3.26c1.94-.9,3.88-1.8,5.81-2.72l4.07-1.91q29.43-13.93,58.13-29.1c1.45-.76,2.89-1.52,4.33-2.3,1.9-1,3.8-2,5.69-3l.12-.06q3.6-1.93,7.17-3.88c1.29-.7,2.58-1.4,3.86-2.12l4.19-2.3c2.49-1.38,5-2.76,7.45-4.15,1.52-.85,3.05-1.7,4.57-2.57l5.66-3.21,1.5-.86q3.95-2.25,7.88-4.54,3.39-2,6.77-4,2.7-1.57,5.38-3.18c2-1.14,3.91-2.31,5.86-3.48,2.34-1.4,4.68-2.81,7-4.22,2.14-1.3,4.28-2.6,6.41-3.92q14.41-8.82,28.59-18c1.87-1.2,3.73-2.4,5.59-3.62q7.11-4.62,14.15-9.33c1.81-1.2,3.62-2.42,5.43-3.64,2.1-1.41,4.18-2.82,6.26-4.24s4.13-2.81,6.19-4.24c.28-.18.55-.37.82-.56q3.69-2.54,7.36-5.11l.53-.36q3.08-2.14,6.13-4.31l2.41-1.71.63-.45q7.8-7.47,15.47-15a300.43,300.43,0,0,1-337.75-104.67Z"/></svg>